<?xml version="1.0" encoding="UTF-8"?>
<!DOCTYPE svg PUBLIC "-//W3C//DTD SVG 1.1//EN" "http://www.w3.org/Graphics/SVG/1.1/DTD/svg11.dtd">
<svg xmlns="http://www.w3.org/2000/svg" version="1.1" width="2500px" height="2500px" style="shape-rendering:geometricPrecision; text-rendering:geometricPrecision; image-rendering:optimizeQuality; fill-rule:evenodd; clip-rule:evenodd" xmlns:xlink="http://www.w3.org/1999/xlink">
<g><path style="opacity:0.98" fill="#372a7e" d="M 1244.5,177.5 C 1242.48,181.669 1239.82,185.502 1236.5,189C 1232.75,190.989 1228.75,191.822 1224.5,191.5C 1220.71,184.659 1218.38,177.326 1217.5,169.5C 1203.14,173.838 1188.47,175.671 1173.5,175C 1167.56,173.395 1164.06,169.562 1163,163.5C 1147.34,173.776 1130.17,179.776 1111.5,181.5C 1107.3,181.183 1103.3,181.517 1099.5,182.5C 1094.14,183.897 1088.81,185.397 1083.5,187C 1078.8,187.648 1074.13,187.481 1069.5,186.5C 1042.87,152.5 1047.54,123.667 1083.5,100C 1108.74,89.7888 1134.41,88.7888 1160.5,97C 1182.89,102.936 1201.39,114.769 1216,132.5C 1214.7,125.495 1211.2,119.662 1205.5,115C 1200.8,111.989 1196.14,108.989 1191.5,106C 1191.63,104.941 1192.13,104.108 1193,103.5C 1200.22,107.388 1206.89,112.055 1213,117.5C 1216.88,122.662 1219.72,128.328 1221.5,134.5C 1227.6,132.154 1233.94,130.82 1240.5,130.5C 1240.5,131.5 1240.5,132.5 1240.5,133.5C 1236.86,134.08 1233.19,134.58 1229.5,135C 1250.5,133.651 1259,143.151 1255,163.5C 1252.41,168.917 1248.91,173.583 1244.5,177.5 Z"/></g>
<g><path style="opacity:0.997" fill="#fca6a7" d="M 1224.5,191.5 C 1228.12,196.055 1229.95,201.389 1230,207.5C 1231.24,217.126 1231.74,226.792 1231.5,236.5C 1231.5,237.833 1231.5,239.167 1231.5,240.5C 1231.5,241.5 1231.5,242.5 1231.5,243.5C 1231.11,252.986 1229.78,262.319 1227.5,271.5C 1223.62,288.265 1216.28,303.265 1205.5,316.5C 1176.41,344.874 1146.41,345.707 1115.5,319C 1112.93,315.997 1110.27,313.164 1107.5,310.5C 1097.73,299.298 1091.4,286.298 1088.5,271.5C 1086.51,261.449 1085.17,251.449 1084.5,241.5C 1084.5,241.167 1084.5,240.833 1084.5,240.5C 1085.38,233.877 1085.71,227.211 1085.5,220.5C 1085.27,215.752 1085.77,211.085 1087,206.5C 1094.23,201.763 1098.4,195.096 1099.5,186.5C 1100.43,185.432 1100.77,184.099 1100.5,182.5C 1104.37,182.815 1108.04,182.482 1111.5,181.5C 1130.17,179.776 1147.34,173.776 1163,163.5C 1164.06,169.562 1167.56,173.395 1173.5,175C 1188.47,175.671 1203.14,173.838 1217.5,169.5C 1218.38,177.326 1220.71,184.659 1224.5,191.5 Z"/></g>
<g><path style="opacity:1" fill="#53459a" d="M 1244.5,177.5 C 1250.63,188.495 1251.13,199.829 1246,211.5C 1243.82,216.521 1241.65,221.521 1239.5,226.5C 1236.83,229.833 1234.17,233.167 1231.5,236.5C 1231.74,226.792 1231.24,217.126 1230,207.5C 1229.95,201.389 1228.12,196.055 1224.5,191.5C 1228.75,191.822 1232.75,190.989 1236.5,189C 1239.82,185.502 1242.48,181.669 1244.5,177.5 Z"/></g>
<g><path style="opacity:1" fill="#a26f97" d="M 1111.5,181.5 C 1108.04,182.482 1104.37,182.815 1100.5,182.5C 1100.77,184.099 1100.43,185.432 1099.5,186.5C 1099.5,185.167 1099.5,183.833 1099.5,182.5C 1103.3,181.517 1107.3,181.183 1111.5,181.5 Z"/></g>
<g><path style="opacity:1" fill="#53459b" d="M 1099.5,182.5 C 1099.5,183.833 1099.5,185.167 1099.5,186.5C 1098.4,195.096 1094.23,201.763 1087,206.5C 1085.77,211.085 1085.27,215.752 1085.5,220.5C 1084.67,225.316 1084.17,230.316 1084,235.5C 1081.95,232.953 1080.11,230.286 1078.5,227.5C 1072.82,214.413 1069.82,200.746 1069.5,186.5C 1074.13,187.481 1078.8,187.648 1083.5,187C 1088.81,185.397 1094.14,183.897 1099.5,182.5 Z"/></g>
<g><path style="opacity:1" fill="#180e49" d="M 1135.5,208.5 C 1138.52,208.335 1141.52,208.502 1144.5,209C 1145.83,211 1145.83,213 1144.5,215C 1135.85,216.608 1127.18,218.108 1118.5,219.5C 1113.93,219.902 1112.43,217.902 1114,213.5C 1114.5,213 1115,212.5 1115.5,212C 1122.36,211.149 1129.03,209.982 1135.5,208.5 Z"/></g>
<g><path style="opacity:1" fill="#1a0f49" d="M 1176.5,208.5 C 1186.84,209.362 1197.01,211.029 1207,213.5C 1208.52,218.485 1206.68,220.485 1201.5,219.5C 1193.52,218.225 1185.52,217.059 1177.5,216C 1174.03,213.806 1173.7,211.306 1176.5,208.5 Z"/></g>
<g><path style="opacity:0.945" fill="#dd9092" d="M 1085.5,220.5 C 1085.71,227.211 1085.38,233.877 1084.5,240.5C 1078.16,235.42 1071.99,235.42 1066,240.5C 1064.81,243.194 1064.64,245.861 1065.5,248.5C 1068.78,237.088 1074.95,235.422 1084,243.5C 1084.46,242.906 1084.63,242.239 1084.5,241.5C 1085.17,251.449 1086.51,261.449 1088.5,271.5C 1066.63,269.458 1056.46,257.458 1058,235.5C 1062.35,226.439 1069.18,223.772 1078.5,227.5C 1080.11,230.286 1081.95,232.953 1084,235.5C 1084.17,230.316 1084.67,225.316 1085.5,220.5 Z"/></g>
<g><path style="opacity:0.941" fill="#de9192" d="M 1227.5,271.5 C 1229.78,262.319 1231.11,252.986 1231.5,243.5C 1234.32,240.756 1237.65,239.09 1241.5,238.5C 1247.2,239.206 1250.2,242.539 1250.5,248.5C 1252.19,243.694 1250.86,239.861 1246.5,237C 1240.85,235.676 1235.85,236.843 1231.5,240.5C 1231.5,239.167 1231.5,237.833 1231.5,236.5C 1234.17,233.167 1236.83,229.833 1239.5,226.5C 1253.92,225.785 1259.76,232.785 1257,247.5C 1252.99,262.682 1243.15,270.682 1227.5,271.5 Z"/></g>
<g><path style="opacity:1" fill="#170e48" d="M 1133.5,229.5 C 1143.27,229.073 1145.6,232.906 1140.5,241C 1136.54,243.385 1133.38,242.552 1131,238.5C 1129.93,234.9 1130.76,231.9 1133.5,229.5 Z"/></g>
<g><path style="opacity:1" fill="#1b0f49" d="M 1181.5,229.5 C 1190.99,228.658 1193.66,232.491 1189.5,241C 1183.76,243.464 1180.09,241.631 1178.5,235.5C 1178.98,233.199 1179.98,231.199 1181.5,229.5 Z"/></g>
<g><path style="opacity:1" fill="#25164d" d="M 1231.5,243.5 C 1231.5,242.5 1231.5,241.5 1231.5,240.5C 1235.85,236.843 1240.85,235.676 1246.5,237C 1250.86,239.861 1252.19,243.694 1250.5,248.5C 1250.2,242.539 1247.2,239.206 1241.5,238.5C 1237.65,239.09 1234.32,240.756 1231.5,243.5 Z"/></g>
<g><path style="opacity:1" fill="#20134b" d="M 1084.5,240.5 C 1084.5,240.833 1084.5,241.167 1084.5,241.5C 1084.63,242.239 1084.46,242.906 1084,243.5C 1074.95,235.422 1068.78,237.088 1065.5,248.5C 1064.64,245.861 1064.81,243.194 1066,240.5C 1071.99,235.42 1078.16,235.42 1084.5,240.5 Z"/></g>
<g><path style="opacity:1" fill="#26164e" d="M 1167.5,248.5 C 1168.38,248.369 1169.04,248.702 1169.5,249.5C 1173.52,256.835 1174.35,264.502 1172,272.5C 1167.36,277.955 1161.53,279.621 1154.5,277.5C 1157.78,276.676 1161.12,276.176 1164.5,276C 1169.6,273.748 1171.94,269.748 1171.5,264C 1170.68,258.696 1169.34,253.529 1167.5,248.5 Z"/></g>
<g><path style="opacity:1" fill="#fffdfd" d="M 1141.5,291.5 C 1152.85,291.168 1164.19,291.501 1175.5,292.5C 1171.63,304.095 1163.63,308.262 1151.5,305C 1145.61,302.382 1142.28,297.882 1141.5,291.5 Z"/></g>
<g><path style="opacity:0.98" fill="#e09293" d="M 1107.5,310.5 C 1110.27,313.164 1112.93,315.997 1115.5,319C 1146.41,345.707 1176.41,344.874 1205.5,316.5C 1205.5,332.167 1205.5,347.833 1205.5,363.5C 1185.13,347.331 1164.13,346.497 1142.5,361C 1129.52,372.131 1122.85,386.298 1122.5,403.5C 1121.58,404.127 1120.58,404.461 1119.5,404.5C 1116.87,401.921 1114.7,398.921 1113,395.5C 1110.67,389.172 1108.84,382.838 1107.5,376.5C 1107.5,354.5 1107.5,332.5 1107.5,310.5 Z"/></g>
<g><path style="opacity:0.998" fill="#e9d8ea" d="M 1205.5,363.5 C 1210.36,366.688 1213.69,371.021 1215.5,376.5C 1219.86,384.935 1222.19,393.935 1222.5,403.5C 1230.55,407.324 1231.55,412.49 1225.5,419C 1221.3,420.367 1216.97,420.867 1212.5,420.5C 1193.83,420.5 1175.17,420.5 1156.5,420.5C 1156.85,424.637 1156.35,428.637 1155,432.5C 1149.84,438.062 1145.17,437.729 1141,431.5C 1140.5,427.848 1140.33,424.182 1140.5,420.5C 1137.83,420.5 1135.17,420.5 1132.5,420.5C 1128.82,420.665 1125.15,420.499 1121.5,420C 1114.39,415.645 1113.73,410.479 1119.5,404.5C 1120.58,404.461 1121.58,404.127 1122.5,403.5C 1122.85,386.298 1129.52,372.131 1142.5,361C 1164.13,346.497 1185.13,347.331 1205.5,363.5 Z"/></g>
<g><path style="opacity:0.997" fill="#3c9aed" d="M 1107.5,376.5 C 1108.84,382.838 1110.67,389.172 1113,395.5C 1114.7,398.921 1116.87,401.921 1119.5,404.5C 1113.73,410.479 1114.39,415.645 1121.5,420C 1125.15,420.499 1128.82,420.665 1132.5,420.5C 1125.86,430.092 1122.86,440.759 1123.5,452.5C 1117.52,453.785 1115.02,457.452 1116,463.5C 1116.83,465.667 1118.33,467.167 1120.5,468C 1123.25,468.272 1125.92,468.772 1128.5,469.5C 1130.5,476.5 1132.5,483.5 1134.5,490.5C 1129.23,489.571 1124.73,490.904 1121,494.5C 1118.05,501.967 1115.88,509.633 1114.5,517.5C 1112.2,517.804 1111.87,518.804 1113.5,520.5C 1112.29,527.116 1112.29,533.782 1113.5,540.5C 1112.96,540.56 1112.62,540.893 1112.5,541.5C 1113.52,542.852 1114.52,544.185 1115.5,545.5C 1116.37,553.525 1119.53,560.859 1125,567.5C 1173.34,620.67 1221.84,673.67 1270.5,726.5C 1270.63,727.376 1270.3,728.043 1269.5,728.5C 1256.65,735.172 1242.98,739.005 1228.5,740C 1184.83,740.667 1141.17,740.667 1097.5,740C 1082.29,736.448 1070.79,727.948 1063,714.5C 1057.17,704.342 1052.5,693.675 1049,682.5C 1038.62,639.147 1028.78,595.814 1019.5,552.5C 1018.35,552.791 1017.68,553.624 1017.5,555C 1011.38,584.426 1005.71,613.926 1000.5,643.5C 952.736,644.162 905.069,644.829 857.5,645.5C 857.672,646.492 857.338,647.158 856.5,647.5C 853.5,647.5 850.5,647.5 847.5,647.5C 859.883,583.419 872.716,519.419 886,455.5C 898.541,419.959 922.708,396.126 958.5,384C 969.225,380.388 980.225,378.055 991.5,377C 1030.17,376.5 1068.83,376.333 1107.5,376.5 Z"/></g>
<g><path style="opacity:0.994" fill="#3c9aed" d="M 1215.5,376.5 C 1231.5,376.333 1247.5,376.5 1263.5,377C 1320.79,383.881 1362.29,413.048 1388,464.5C 1415.07,525.208 1442.24,585.875 1469.5,646.5C 1468.31,647.429 1466.98,647.762 1465.5,647.5C 1429,646.502 1392.34,646.168 1355.5,646.5C 1345.95,640.222 1336.95,633.222 1328.5,625.5C 1320.77,605.817 1312.94,586.151 1305,566.5C 1305.45,580.815 1305.95,595.148 1306.5,609.5C 1281.96,590.8 1258.12,571.134 1235,550.5C 1226.64,537.759 1221.64,523.759 1220,508.5C 1217.44,503.108 1213.94,498.441 1209.5,494.5C 1209.5,494.167 1209.5,493.833 1209.5,493.5C 1214.81,494.26 1218.65,492.26 1221,487.5C 1221.5,481.175 1221.67,474.842 1221.5,468.5C 1227.95,467.608 1230.45,463.941 1229,457.5C 1227.5,454.998 1225.34,453.331 1222.5,452.5C 1222.17,440.835 1218.83,430.168 1212.5,420.5C 1216.97,420.867 1221.3,420.367 1225.5,419C 1231.55,412.49 1230.55,407.324 1222.5,403.5C 1222.19,393.935 1219.86,384.935 1215.5,376.5 Z"/></g>
<g><path style="opacity:1" fill="#57b7c0" d="M 1132.5,420.5 C 1135.17,420.5 1137.83,420.5 1140.5,420.5C 1140.33,424.182 1140.5,427.848 1141,431.5C 1145.17,437.729 1149.84,438.062 1155,432.5C 1156.35,428.637 1156.85,424.637 1156.5,420.5C 1175.17,420.5 1193.83,420.5 1212.5,420.5C 1218.83,430.168 1222.17,440.835 1222.5,452.5C 1225.34,453.331 1227.5,454.998 1229,457.5C 1230.45,463.941 1227.95,467.608 1221.5,468.5C 1221.67,474.842 1221.5,481.175 1221,487.5C 1218.65,492.26 1214.81,494.26 1209.5,493.5C 1207.75,491.754 1206.42,489.754 1205.5,487.5C 1205.5,481.167 1205.5,474.833 1205.5,468.5C 1179.66,468.169 1153.99,468.502 1128.5,469.5C 1125.92,468.772 1123.25,468.272 1120.5,468C 1118.33,467.167 1116.83,465.667 1116,463.5C 1115.02,457.452 1117.52,453.785 1123.5,452.5C 1122.86,440.759 1125.86,430.092 1132.5,420.5 Z"/></g>
<g><path style="opacity:1" fill="#bec791" d="M 1128.5,469.5 C 1153.99,468.502 1179.66,468.169 1205.5,468.5C 1205.5,474.833 1205.5,481.167 1205.5,487.5C 1204.51,482.36 1204.18,477.026 1204.5,471.5C 1201.66,469.598 1198.33,468.931 1194.5,469.5C 1187.5,469.5 1180.5,469.5 1173.5,469.5C 1169.5,469.5 1165.5,469.5 1161.5,469.5C 1150.5,469.5 1139.5,469.5 1128.5,469.5 Z"/></g>
<g><path style="opacity:1" fill="#fed684" d="M 1128.5,469.5 C 1139.5,469.5 1150.5,469.5 1161.5,469.5C 1153.83,477.5 1146.17,485.5 1138.5,493.5C 1137.17,492.5 1135.83,491.5 1134.5,490.5C 1132.5,483.5 1130.5,476.5 1128.5,469.5 Z"/></g>
<g><path style="opacity:1" fill="#ffbf44" d="M 1161.5,469.5 C 1165.5,469.5 1169.5,469.5 1173.5,469.5C 1163.83,479.5 1154.17,489.5 1144.5,499.5C 1142.08,498.05 1140.08,496.05 1138.5,493.5C 1146.17,485.5 1153.83,477.5 1161.5,469.5 Z"/></g>
<g><path style="opacity:1" fill="#ffd682" d="M 1173.5,469.5 C 1180.5,469.5 1187.5,469.5 1194.5,469.5C 1181.83,482.5 1169.17,495.5 1156.5,508.5C 1152.1,505.975 1148.1,502.975 1144.5,499.5C 1154.17,489.5 1163.83,479.5 1173.5,469.5 Z"/></g>
<g><path style="opacity:1" fill="#febe41" d="M 1194.5,469.5 C 1198.33,468.931 1201.66,469.598 1204.5,471.5C 1190.5,484.833 1176.83,498.5 1163.5,512.5C 1161.03,511.431 1158.7,510.098 1156.5,508.5C 1169.17,495.5 1181.83,482.5 1194.5,469.5 Z"/></g>
<g><path style="opacity:1" fill="#fed682" d="M 1204.5,471.5 C 1204.18,477.026 1204.51,482.36 1205.5,487.5C 1206.42,489.754 1207.75,491.754 1209.5,493.5C 1209.5,493.833 1209.5,494.167 1209.5,494.5C 1201.68,490.665 1197.02,492.998 1195.5,501.5C 1188.5,507.833 1181.83,514.5 1175.5,521.5C 1171.46,518.488 1167.46,515.488 1163.5,512.5C 1176.83,498.5 1190.5,484.833 1204.5,471.5 Z"/></g>
<g><path style="opacity:0.996" fill="#fca6a7" d="M 1134.5,490.5 C 1135.83,491.5 1137.17,492.5 1138.5,493.5C 1140.08,496.05 1142.08,498.05 1144.5,499.5C 1148.1,502.975 1152.1,505.975 1156.5,508.5C 1158.7,510.098 1161.03,511.431 1163.5,512.5C 1167.46,515.488 1171.46,518.488 1175.5,521.5C 1177.74,523.116 1180.07,524.449 1182.5,525.5C 1180.16,525.775 1180.16,526.608 1182.5,528C 1190.17,532.5 1197.83,537 1205.5,541.5C 1206.52,540.998 1206.69,540.332 1206,539.5C 1202.32,537.304 1198.82,534.97 1195.5,532.5C 1195.5,526.167 1195.5,519.833 1195.5,513.5C 1195.5,509.5 1195.5,505.5 1195.5,501.5C 1197.02,492.998 1201.68,490.665 1209.5,494.5C 1213.94,498.441 1217.44,503.108 1220,508.5C 1221.64,523.759 1226.64,537.759 1235,550.5C 1258.12,571.134 1281.96,590.8 1306.5,609.5C 1307.53,611.194 1308.86,612.527 1310.5,613.5C 1310.41,614.496 1310.75,615.329 1311.5,616C 1359.99,653.742 1408.65,691.242 1457.5,728.5C 1457.83,728.167 1458.17,727.833 1458.5,727.5C 1423.92,700.721 1389.58,673.721 1355.5,646.5C 1392.34,646.168 1429,646.502 1465.5,647.5C 1473.33,682.148 1481.16,716.815 1489,751.5C 1497.81,784.944 1492.48,815.944 1473,844.5C 1459.28,859.075 1442.44,864.909 1422.5,862C 1405.8,859.549 1390.8,853.216 1377.5,843C 1362.6,827.604 1347.93,812.104 1333.5,796.5C 1313.23,772.564 1292.23,749.231 1270.5,726.5C 1221.84,673.67 1173.34,620.67 1125,567.5C 1119.53,560.859 1116.37,553.525 1115.5,545.5C 1124.79,555.963 1134.29,566.297 1144,576.5C 1144.5,576 1145,575.5 1145.5,575C 1134.6,563.604 1123.93,552.104 1113.5,540.5C 1112.29,533.782 1112.29,527.116 1113.5,520.5C 1123.5,530.337 1133,540.67 1142,551.5C 1142.89,552.711 1143.73,552.711 1144.5,551.5C 1134.85,539.85 1124.85,528.517 1114.5,517.5C 1115.88,509.633 1118.05,501.967 1121,494.5C 1124.73,490.904 1129.23,489.571 1134.5,490.5 Z"/></g>
<g><path style="opacity:1" fill="#febe43" d="M 1195.5,501.5 C 1195.5,505.5 1195.5,509.5 1195.5,513.5C 1191.17,517.167 1187.17,521.167 1183.5,525.5C 1183.17,525.5 1182.83,525.5 1182.5,525.5C 1180.07,524.449 1177.74,523.116 1175.5,521.5C 1181.83,514.5 1188.5,507.833 1195.5,501.5 Z"/></g>
<g><path style="opacity:1" fill="#fbd483" d="M 1195.5,513.5 C 1195.5,519.833 1195.5,526.167 1195.5,532.5C 1191.16,530.668 1187.16,528.335 1183.5,525.5C 1187.17,521.167 1191.17,517.167 1195.5,513.5 Z"/></g>
<g><path style="opacity:1" fill="#27184f" d="M 1120.5,497.5 C 1122.37,497.859 1123.87,498.859 1125,500.5C 1134.13,511.299 1143.63,521.799 1153.5,532C 1153,532.5 1152.5,533 1152,533.5C 1140.78,521.999 1130.28,509.999 1120.5,497.5 Z"/></g>
<g><path style="opacity:1" fill="#29194e" d="M 1182.5,525.5 C 1182.83,525.5 1183.17,525.5 1183.5,525.5C 1187.16,528.335 1191.16,530.668 1195.5,532.5C 1198.82,534.97 1202.32,537.304 1206,539.5C 1206.69,540.332 1206.52,540.998 1205.5,541.5C 1197.83,537 1190.17,532.5 1182.5,528C 1180.16,526.608 1180.16,525.775 1182.5,525.5 Z"/></g>
<g><path style="opacity:1" fill="#28184f" d="M 1114.5,517.5 C 1124.85,528.517 1134.85,539.85 1144.5,551.5C 1143.73,552.711 1142.89,552.711 1142,551.5C 1133,540.67 1123.5,530.337 1113.5,520.5C 1111.87,518.804 1112.2,517.804 1114.5,517.5 Z"/></g>
<g><path style="opacity:0.998" fill="#378bdc" d="M 1019.5,552.5 C 1028.78,595.814 1038.62,639.147 1049,682.5C 1052.5,693.675 1057.17,704.342 1063,714.5C 1070.79,727.948 1082.29,736.448 1097.5,740C 1141.17,740.667 1184.83,740.667 1228.5,740C 1242.98,739.005 1256.65,735.172 1269.5,728.5C 1270.3,728.043 1270.63,727.376 1270.5,726.5C 1292.23,749.231 1313.23,772.564 1333.5,796.5C 1334.15,811.664 1334.82,826.83 1335.5,842C 1335.49,845.902 1334.82,849.402 1333.5,852.5C 1294.74,859.376 1255.74,864.543 1216.5,868C 1145.38,873.155 1075.04,867.988 1005.5,852.5C 1004.57,851.432 1004.23,850.099 1004.5,848.5C 1002.69,783.85 1001.36,719.184 1000.5,654.5C 1000.5,651.5 1000.5,648.5 1000.5,645.5C 1001.65,645.209 1002.32,644.376 1002.5,643C 1008.12,612.814 1013.79,582.647 1019.5,552.5 Z"/></g>
<g><path style="opacity:1" fill="#29184f" d="M 1113.5,540.5 C 1123.93,552.104 1134.6,563.604 1145.5,575C 1145,575.5 1144.5,576 1144,576.5C 1134.29,566.297 1124.79,555.963 1115.5,545.5C 1114.52,544.185 1113.52,542.852 1112.5,541.5C 1112.62,540.893 1112.96,540.56 1113.5,540.5 Z"/></g>
<g><path style="opacity:1" fill="#378bdc" d="M 1328.5,625.5 C 1322.77,621.108 1316.77,617.108 1310.5,613.5C 1308.86,612.527 1307.53,611.194 1306.5,609.5C 1305.95,595.148 1305.45,580.815 1305,566.5C 1312.94,586.151 1320.77,605.817 1328.5,625.5 Z"/></g>
<g><path style="opacity:1" fill="#141957" d="M 1019.5,552.5 C 1013.79,582.647 1008.12,612.814 1002.5,643C 1002.32,644.376 1001.65,645.209 1000.5,645.5C 1000.5,644.833 1000.5,644.167 1000.5,643.5C 1005.71,613.926 1011.38,584.426 1017.5,555C 1017.68,553.624 1018.35,552.791 1019.5,552.5 Z"/></g>
<g><path style="opacity:1" fill="#789ed7" d="M 1000.5,643.5 C 1000.5,644.167 1000.5,644.833 1000.5,645.5C 952.833,645.5 905.167,645.5 857.5,645.5C 905.069,644.829 952.736,644.162 1000.5,643.5 Z"/></g>
<g><path style="opacity:0.993" fill="#fca6a7" d="M 857.5,645.5 C 905.167,645.5 952.833,645.5 1000.5,645.5C 1000.5,648.5 1000.5,651.5 1000.5,654.5C 992.756,695.622 985.423,736.956 978.5,778.5C 986.593,802.121 995.26,825.454 1004.5,848.5C 1004.23,850.099 1004.57,851.432 1005.5,852.5C 1021.36,895.581 1037.53,938.581 1054,981.5C 1067.62,992.122 1080.96,1003.12 1094,1014.5C 1096.22,1021.44 1094.05,1026.27 1087.5,1029C 1081.57,1030.47 1075.57,1030.8 1069.5,1030C 1060.11,1025.56 1050.95,1020.72 1042,1015.5C 1021.57,1029.63 1001.07,1043.63 980.5,1057.5C 980.5,1056.83 980.167,1056.5 979.5,1056.5C 971.28,1037.73 962.28,1019.39 952.5,1001.5C 925.408,946.983 898.575,892.316 872,837.5C 858.715,807.246 851.882,775.579 851.5,742.5C 853.362,710.84 855.029,679.173 856.5,647.5C 857.338,647.158 857.672,646.492 857.5,645.5 Z"/></g>
<g><path style="opacity:1" fill="#25174f" d="M 1310.5,613.5 C 1316.77,617.108 1322.77,621.108 1328.5,625.5C 1336.95,633.222 1345.95,640.222 1355.5,646.5C 1389.58,673.721 1423.92,700.721 1458.5,727.5C 1458.17,727.833 1457.83,728.167 1457.5,728.5C 1408.65,691.242 1359.99,653.742 1311.5,616C 1310.75,615.329 1310.41,614.496 1310.5,613.5 Z"/></g>
<g><path style="opacity:1" fill="#301c52" d="M 959.5,779.5 C 965.537,779.171 971.537,779.504 977.5,780.5C 966.145,781.36 954.812,782.36 943.5,783.5C 943.5,782.5 943.5,781.5 943.5,780.5C 949.026,780.821 954.36,780.488 959.5,779.5 Z"/></g>
<g><path style="opacity:0.998" fill="#0f0a46" d="M 1005.5,852.5 C 1075.04,867.988 1145.38,873.155 1216.5,868C 1255.74,864.543 1294.74,859.376 1333.5,852.5C 1333.39,853.117 1333.06,853.617 1332.5,854C 1362.55,916.156 1385.05,980.989 1400,1048.5C 1403.26,1068.39 1405.59,1088.39 1407,1108.5C 1416.96,1254.35 1423.63,1400.35 1427,1546.5C 1432.91,1761.47 1437.08,1976.47 1439.5,2191.5C 1430.83,2191.5 1422.17,2191.5 1413.5,2191.5C 1356.93,2190.17 1300.26,2190.17 1243.5,2191.5C 1225.5,2191.5 1207.5,2191.5 1189.5,2191.5C 1189.14,1984.83 1188.31,1778.16 1187,1571.5C 1182.17,1455.5 1177.33,1339.5 1172.5,1223.5C 1173.32,1225.97 1173.82,1228.64 1174,1231.5C 1191.89,1551.22 1210.39,1870.89 1229.5,2190.5C 1229.83,2187 1230.17,2183.5 1230.5,2180C 1210.39,1831.84 1190.39,1483.67 1170.5,1135.5C 1178.76,1107.96 1186.76,1080.29 1194.5,1052.5C 1194.17,1051.83 1193.83,1051.17 1193.5,1050.5C 1184.56,1078.65 1176.23,1106.98 1168.5,1135.5C 1168.5,1139.17 1168.5,1142.83 1168.5,1146.5C 1168.5,1149.83 1168.5,1153.17 1168.5,1156.5C 1158.29,1300.49 1148.12,1444.49 1138,1588.5C 1127.69,1789.52 1117.19,1990.52 1106.5,2191.5C 1087.5,2191.5 1068.5,2191.5 1049.5,2191.5C 1000.83,2190.17 952.167,2190.17 903.5,2191.5C 890.5,2191.5 877.5,2191.5 864.5,2191.5C 871.111,1959.05 880.611,1726.72 893,1494.5C 898.297,1396.01 905.63,1297.68 915,1199.5C 919.149,1153.46 925.815,1107.79 935,1062.5C 940.064,1041.91 945.897,1021.57 952.5,1001.5C 962.28,1019.39 971.28,1037.73 979.5,1056.5C 958.757,1099.11 945.59,1144.11 940,1191.5C 920.855,1521.31 902.022,1851.15 883.5,2181C 883.833,2184.17 884.167,2187.33 884.5,2190.5C 904.058,1857.86 923.225,1525.19 942,1192.5C 947.528,1145.38 960.362,1100.38 980.5,1057.5C 1001.07,1043.63 1021.57,1029.63 1042,1015.5C 1050.95,1020.72 1060.11,1025.56 1069.5,1030C 1075.57,1030.8 1081.57,1030.47 1087.5,1029C 1094.05,1026.27 1096.22,1021.44 1094,1014.5C 1080.96,1003.12 1067.62,992.122 1054,981.5C 1037.53,938.581 1021.36,895.581 1005.5,852.5 Z"/></g>
<g><path style="opacity:1" fill="#dbd9e3" d="M 1170.5,1135.5 C 1169.83,1135.5 1169.17,1135.5 1168.5,1135.5C 1176.23,1106.98 1184.56,1078.65 1193.5,1050.5C 1193.83,1051.17 1194.17,1051.83 1194.5,1052.5C 1186.76,1080.29 1178.76,1107.96 1170.5,1135.5 Z"/></g>
<g><path style="opacity:0.506" fill="#bab9ca" d="M 1168.5,1146.5 C 1169.31,1148.63 1169.81,1150.96 1170,1153.5C 1170.77,1166.16 1171.27,1178.83 1171.5,1191.5C 1170.46,1179.84 1169.46,1168.17 1168.5,1156.5C 1168.5,1153.17 1168.5,1149.83 1168.5,1146.5 Z"/></g>
<g><path style="opacity:1" fill="#4c4875" d="M 979.5,1056.5 C 980.167,1056.5 980.5,1056.83 980.5,1057.5C 960.362,1100.38 947.528,1145.38 942,1192.5C 923.225,1525.19 904.058,1857.86 884.5,2190.5C 884.167,2187.33 883.833,2184.17 883.5,2181C 902.022,1851.15 920.855,1521.31 940,1191.5C 945.59,1144.11 958.757,1099.11 979.5,1056.5 Z"/></g>
<g><path style="opacity:1" fill="#4c4875" d="M 1168.5,1135.5 C 1169.17,1135.5 1169.83,1135.5 1170.5,1135.5C 1190.39,1483.67 1210.39,1831.84 1230.5,2180C 1230.17,2183.5 1229.83,2187 1229.5,2190.5C 1210.39,1870.89 1191.89,1551.22 1174,1231.5C 1173.82,1228.64 1173.32,1225.97 1172.5,1223.5C 1171.85,1212.85 1171.52,1202.18 1171.5,1191.5C 1171.27,1178.83 1170.77,1166.16 1170,1153.5C 1169.81,1150.96 1169.31,1148.63 1168.5,1146.5C 1168.5,1142.83 1168.5,1139.17 1168.5,1135.5 Z"/></g>
<g><path style="opacity:0.63" fill="#08062b" d="M 1517.5,2273.5 C 1516,2273.01 1514.67,2272.34 1513.5,2271.5C 1535.34,2259.99 1554.51,2244.99 1571,2226.5C 1575.61,2220.77 1578.45,2214.27 1579.5,2207C 1577.97,2195.13 1571.31,2189.46 1559.5,2190C 1554.88,2191.29 1550.71,2193.46 1547,2196.5C 1543.01,2205.82 1538.01,2214.49 1532,2222.5C 1521.64,2236.56 1510.81,2250.23 1499.5,2263.5C 1497.62,2263.77 1496.29,2263.1 1495.5,2261.5C 1512.17,2243.33 1527.17,2223.83 1540.5,2203C 1539.83,2202.33 1539.17,2202.33 1538.5,2203C 1521.7,2220.62 1507.03,2239.79 1494.5,2260.5C 1492.82,2260.71 1491.82,2260.05 1491.5,2258.5C 1503.99,2238.39 1518.33,2219.55 1534.5,2202C 1537.67,2199.5 1540.83,2197 1544,2194.5C 1546.97,2188.82 1547.14,2183.15 1544.5,2177.5C 1537.81,2173.5 1531.15,2173.66 1524.5,2178C 1513.97,2187.56 1506.13,2199.06 1501,2212.5C 1496.99,2223.02 1493.49,2233.69 1490.5,2244.5C 1489.29,2245.23 1487.96,2245.57 1486.5,2245.5C 1491.31,2227.88 1497.81,2210.88 1506,2194.5C 1510.1,2187.41 1515.26,2181.24 1521.5,2176C 1527.28,2171.99 1533.61,2170.66 1540.5,2172C 1546.49,2173.49 1549.82,2177.33 1550.5,2183.5C 1549.46,2185.77 1549.29,2188.1 1550,2190.5C 1563.02,2183.18 1573.36,2185.85 1581,2198.5C 1583,2204.17 1583,2209.83 1581,2215.5C 1573.41,2230.76 1562.58,2243.26 1548.5,2253C 1538.26,2260.09 1527.93,2266.92 1517.5,2273.5 Z"/></g>
<g><path style="opacity:0.99" fill="#f9a4a6" d="M 1049.5,2191.5 C 1049.5,2200.17 1049.5,2208.83 1049.5,2217.5C 1001.5,2217.17 953.495,2217.5 905.5,2218.5C 905.058,2219.74 904.391,2220.74 903.5,2221.5C 903.5,2211.5 903.5,2201.5 903.5,2191.5C 952.167,2190.17 1000.83,2190.17 1049.5,2191.5 Z"/></g>
<g><path style="opacity:0.994" fill="#faa5a6" d="M 1413.5,2191.5 C 1414.1,2199.55 1414.77,2207.55 1415.5,2215.5C 1359.63,2231.14 1303.63,2246.47 1247.5,2261.5C 1246.27,2238.15 1244.94,2214.82 1243.5,2191.5C 1300.26,2190.17 1356.93,2190.17 1413.5,2191.5 Z"/></g>
<g><path style="opacity:0.991" fill="#251a5e" d="M 1478.5,2249.5 C 1460.8,2258.86 1442.8,2267.86 1424.5,2276.5C 1426.47,2277.37 1428.47,2277.21 1430.5,2276C 1446.17,2268.33 1461.83,2260.67 1477.5,2253C 1478.79,2252.51 1480.13,2252.34 1481.5,2252.5C 1483.86,2255.12 1485.19,2254.45 1485.5,2250.5C 1486.29,2248.9 1487.62,2248.23 1489.5,2248.5C 1488.05,2251 1487.55,2253.67 1488,2256.5C 1488.82,2257.82 1489.98,2258.49 1491.5,2258.5C 1491.82,2260.05 1492.82,2260.71 1494.5,2260.5C 1494.5,2261.17 1494.83,2261.5 1495.5,2261.5C 1496.29,2263.1 1497.62,2263.77 1499.5,2263.5C 1499.5,2263.83 1499.5,2264.17 1499.5,2264.5C 1484.2,2272.81 1468.54,2280.65 1452.5,2288C 1451.29,2288.89 1451.29,2289.73 1452.5,2290.5C 1469.63,2281.94 1486.96,2273.94 1504.5,2266.5C 1507.3,2268.4 1510.3,2270.07 1513.5,2271.5C 1514.67,2272.34 1516,2273.01 1517.5,2273.5C 1520.48,2274.33 1523.15,2275.66 1525.5,2277.5C 1509.8,2285.68 1493.8,2293.35 1477.5,2300.5C 1477.35,2301.55 1477.52,2302.55 1478,2303.5C 1495.12,2294.52 1512.62,2286.52 1530.5,2279.5C 1565.54,2291.92 1595.37,2311.92 1620,2339.5C 1633.59,2356.66 1644.09,2375.66 1651.5,2396.5C 1561.17,2398.8 1470.84,2400.3 1380.5,2401C 1368.24,2391.29 1356.08,2381.45 1344,2371.5C 1343.02,2380.16 1342.18,2388.83 1341.5,2397.5C 1304.17,2398.69 1266.84,2399.69 1229.5,2400.5C 1232.97,2354.51 1237.3,2308.68 1242.5,2263C 1244.15,2262.39 1245.82,2261.89 1247.5,2261.5C 1303.63,2246.47 1359.63,2231.14 1415.5,2215.5C 1424.6,2212.74 1433.77,2210.08 1443,2207.5C 1452.73,2223.29 1464.56,2237.29 1478.5,2249.5 Z M 1485.5,2250.5 C 1485.19,2254.45 1483.86,2255.12 1481.5,2252.5C 1482.51,2251.33 1483.85,2250.66 1485.5,2250.5 Z"/></g>
<g><path style="opacity:0.99" fill="#251a5e" d="M 1049.5,2217.5 C 1062.17,2251.86 1070.34,2287.53 1074,2324.5C 1076.21,2352.15 1078.05,2379.81 1079.5,2407.5C 1012.17,2407.5 944.833,2407.5 877.5,2407.5C 873.409,2343.63 882.075,2281.63 903.5,2221.5C 904.391,2220.74 905.058,2219.74 905.5,2218.5C 953.495,2217.5 1001.5,2217.17 1049.5,2217.5 Z"/></g>
<g><path style="opacity:1" fill="#b3aec7" d="M 916.5,2249.5 C 954.833,2249.5 993.167,2249.5 1031.5,2249.5C 1031.5,2250.5 1031.5,2251.5 1031.5,2252.5C 993.167,2252.5 954.833,2252.5 916.5,2252.5C 916.5,2251.5 916.5,2250.5 916.5,2249.5 Z"/></g>
<g><path style="opacity:1" fill="#e7e6ed" d="M 1490.5,2244.5 C 1490.41,2245.5 1490.75,2246.33 1491.5,2247C 1490.58,2247.28 1489.92,2247.78 1489.5,2248.5C 1487.62,2248.23 1486.29,2248.9 1485.5,2250.5C 1483.85,2250.66 1482.51,2251.33 1481.5,2252.5C 1480.13,2252.34 1478.79,2252.51 1477.5,2253C 1461.83,2260.67 1446.17,2268.33 1430.5,2276C 1428.47,2277.21 1426.47,2277.37 1424.5,2276.5C 1442.8,2267.86 1460.8,2258.86 1478.5,2249.5C 1481.48,2248.68 1484.15,2247.34 1486.5,2245.5C 1487.96,2245.57 1489.29,2245.23 1490.5,2244.5 Z"/></g>
<g><path style="opacity:1" fill="#eae9ef" d="M 1504.5,2266.5 C 1486.96,2273.94 1469.63,2281.94 1452.5,2290.5C 1451.29,2289.73 1451.29,2288.89 1452.5,2288C 1468.54,2280.65 1484.2,2272.81 1499.5,2264.5C 1504.27,2262.62 1508.93,2260.45 1513.5,2258C 1516.44,2257.11 1517.44,2257.95 1516.5,2260.5C 1512.31,2262.33 1508.31,2264.33 1504.5,2266.5 Z"/></g>
<g><path style="opacity:1" fill="#eae9ef" d="M 1530.5,2279.5 C 1512.62,2286.52 1495.12,2294.52 1478,2303.5C 1477.52,2302.55 1477.35,2301.55 1477.5,2300.5C 1493.8,2293.35 1509.8,2285.68 1525.5,2277.5C 1531.03,2274.93 1536.53,2272.27 1542,2269.5C 1543.62,2270.54 1543.78,2271.7 1542.5,2273C 1538.28,2274.94 1534.28,2277.11 1530.5,2279.5 Z"/></g>
<g><path style="opacity:1" fill="#dad8e4" d="M 916.5,2282.5 C 954.506,2282.17 992.506,2282.5 1030.5,2283.5C 1011.5,2283.83 992.5,2284.17 973.5,2284.5C 954.155,2284.5 935.155,2283.83 916.5,2282.5 Z"/></g>
<g><path style="opacity:1" fill="#f6f6f8" d="M 916.5,2310.5 C 954.506,2310.17 992.506,2310.5 1030.5,2311.5C 1011.5,2311.83 992.5,2312.17 973.5,2312.5C 954.155,2312.5 935.155,2311.83 916.5,2310.5 Z"/></g>
</svg>
