<?xml version="1.0" encoding="UTF-8"?>
<!DOCTYPE svg PUBLIC "-//W3C//DTD SVG 1.1//EN" "http://www.w3.org/Graphics/SVG/1.1/DTD/svg11.dtd">
<svg xmlns="http://www.w3.org/2000/svg" version="1.1" width="2500px" height="2500px" style="shape-rendering:geometricPrecision; text-rendering:geometricPrecision; image-rendering:optimizeQuality; fill-rule:evenodd; clip-rule:evenodd" xmlns:xlink="http://www.w3.org/1999/xlink">
<g><path style="opacity:0.99" fill="#251a5e" d="M 1046.5,155.5 C 1071.27,166.022 1081.77,184.688 1078,211.5C 1073.91,221.155 1067.74,229.322 1059.5,236C 1054.65,239.363 1049.98,242.863 1045.5,246.5C 1018.84,250.55 992.172,250.384 965.5,246C 958.407,244.362 951.741,241.862 945.5,238.5C 940.709,232.587 937.209,225.92 935,218.5C 924.701,231.483 921.201,246.149 924.5,262.5C 923.518,265.763 922.851,269.097 922.5,272.5C 921.67,280.99 921.17,289.657 921,298.5C 917.555,295.528 913.722,293.194 909.5,291.5C 903.049,278.086 901.216,264.086 904,249.5C 908.897,243.097 911.564,235.763 912,227.5C 920.278,200.219 937.445,180.719 963.5,169C 990.139,157.115 1017.81,152.615 1046.5,155.5 Z"/></g>
<g><path style="opacity:0.973" fill="#3a306d" d="M 1046.5,155.5 C 1062.97,156.816 1076.47,163.816 1087,176.5C 1097.36,195.492 1096.69,214.159 1085,232.5C 1081.52,236.831 1077.35,240.164 1072.5,242.5C 1065.18,244.727 1057.85,246.394 1050.5,247.5C 1048.96,246.699 1047.29,246.366 1045.5,246.5C 1049.98,242.863 1054.65,239.363 1059.5,236C 1067.74,229.322 1073.91,221.155 1078,211.5C 1081.77,184.688 1071.27,166.022 1046.5,155.5 Z"/></g>
<g><path style="opacity:0.988" fill="#251a5e" d="M 1631.5,505.5 C 1623.83,505.5 1616.17,505.5 1608.5,505.5C 1607.39,505.557 1606.39,505.89 1605.5,506.5C 1591.78,506.411 1578.11,507.078 1564.5,508.5C 1563.29,486.127 1561.62,463.793 1559.5,441.5C 1575.71,427.944 1586.71,410.944 1592.5,390.5C 1611.38,391.947 1621.72,383.28 1623.5,364.5C 1623.71,355.597 1619.38,351.764 1610.5,353C 1606.98,354.59 1603.65,356.423 1600.5,358.5C 1600.5,357.833 1600.5,357.167 1600.5,356.5C 1603.51,355.625 1603.84,354.625 1601.5,353.5C 1602.21,345.854 1602.54,338.187 1602.5,330.5C 1587.69,326.521 1577.85,317.188 1573,302.5C 1570.57,296.034 1569.07,289.367 1568.5,282.5C 1555.34,282.995 1544.17,287.995 1535,297.5C 1527.65,309.852 1517.48,319.019 1504.5,325C 1503.87,326.892 1502.87,328.559 1501.5,330C 1493.44,331.182 1485.44,332.682 1477.5,334.5C 1468.09,331.8 1458.76,328.466 1449.5,324.5C 1449.3,333.895 1449.3,343.228 1449.5,352.5C 1449.06,352.435 1448.73,352.601 1448.5,353C 1449.24,354.039 1450.24,354.539 1451.5,354.5C 1451.5,355.167 1451.5,355.833 1451.5,356.5C 1451.57,356.938 1451.4,357.272 1451,357.5C 1446.16,352.991 1440.66,351.824 1434.5,354C 1432.95,355.214 1431.78,356.714 1431,358.5C 1428.32,379.513 1437.49,390.18 1458.5,390.5C 1463.74,406.989 1472.07,421.656 1483.5,434.5C 1481.38,462.825 1479.38,491.158 1477.5,519.5C 1472.69,520.603 1467.86,521.603 1463,522.5C 1455.69,521.381 1448.53,519.714 1441.5,517.5C 1401.16,502.507 1385.66,473.841 1395,431.5C 1399.48,415.212 1406.14,399.879 1415,385.5C 1426.26,362.045 1430.76,337.378 1428.5,311.5C 1428.8,265.35 1450.14,233.517 1492.5,216C 1517.54,208.405 1540.87,212.072 1562.5,227C 1569.46,232.292 1576.13,237.958 1582.5,244C 1593.94,245.305 1602.78,250.805 1609,260.5C 1616.39,273.991 1621.39,288.324 1624,303.5C 1626.7,320.394 1628.37,337.394 1629,354.5C 1631.35,366.89 1635.69,378.556 1642,389.5C 1653.61,404.99 1660.94,422.324 1664,441.5C 1666.16,469.523 1655.32,490.857 1631.5,505.5 Z"/></g>
<g><path style="opacity:1" fill="#3c316e" d="M 945.5,238.5 C 935.667,244.001 928.667,252.001 924.5,262.5C 921.201,246.149 924.701,231.483 935,218.5C 937.209,225.92 940.709,232.587 945.5,238.5 Z"/></g>
<g><path style="opacity:1" fill="#fba6a7" d="M 945.5,238.5 C 951.741,241.862 958.407,244.362 965.5,246C 992.172,250.384 1018.84,250.55 1045.5,246.5C 1047.29,246.366 1048.96,246.699 1050.5,247.5C 1053.4,250.293 1055.57,253.626 1057,257.5C 1057.62,271.511 1057.46,285.511 1056.5,299.5C 1050.5,302.255 1044.17,304.255 1037.5,305.5C 1033.64,290.234 1023.97,284.068 1008.5,287C 999.772,290.634 995.106,297.134 994.5,306.5C 990.5,306.5 986.5,306.5 982.5,306.5C 979.885,292.056 971.218,285.223 956.5,286C 946.517,288.817 940.517,295.317 938.5,305.5C 933.14,302.82 927.807,300.153 922.5,297.5C 922.5,289.167 922.5,280.833 922.5,272.5C 922.851,269.097 923.518,265.763 924.5,262.5C 928.667,252.001 935.667,244.001 945.5,238.5 Z"/></g>
<g><path style="opacity:0.96" fill="#281b5e" d="M 1072.5,242.5 C 1075.81,260.332 1074.15,277.665 1067.5,294.5C 1066.83,294.5 1066.5,294.833 1066.5,295.5C 1064.03,297.314 1061.37,298.647 1058.5,299.5C 1057.83,299.5 1057.17,299.5 1056.5,299.5C 1057.46,285.511 1057.62,271.511 1057,257.5C 1055.57,253.626 1053.4,250.293 1050.5,247.5C 1057.85,246.394 1065.18,244.727 1072.5,242.5 Z"/></g>
<g><path style="opacity:1" fill="#2d1e60" d="M 962.5,274.5 C 964.857,274.337 967.19,274.503 969.5,275C 970.991,277.022 970.658,278.688 968.5,280C 961.153,281.436 953.82,282.936 946.5,284.5C 942.925,283.006 942.591,280.839 945.5,278C 951.315,276.871 956.981,275.705 962.5,274.5 Z"/></g>
<g><path style="opacity:1" fill="#2f1f61" d="M 1006.5,274.5 C 1014.18,275.468 1021.85,276.635 1029.5,278C 1032.99,279.478 1033.33,281.478 1030.5,284C 1022.37,283.71 1014.37,282.376 1006.5,280C 1005.25,278.172 1005.25,276.339 1006.5,274.5 Z"/></g>
<g><path style="opacity:1" fill="#fba6a7" d="M 1601.5,353.5 C 1594.05,355.609 1586.38,357.276 1578.5,358.5C 1574.96,341.827 1564.63,334.66 1547.5,337C 1536.67,340.654 1531.01,348.154 1530.5,359.5C 1525.83,359.5 1521.17,359.5 1516.5,359.5C 1514.92,344.589 1506.59,336.922 1491.5,336.5C 1477.96,337.705 1470.3,345.038 1468.5,358.5C 1462.27,356.22 1455.94,354.22 1449.5,352.5C 1449.3,343.228 1449.3,333.895 1449.5,324.5C 1458.76,328.466 1468.09,331.8 1477.5,334.5C 1485.44,332.682 1493.44,331.182 1501.5,330C 1502.87,328.559 1503.87,326.892 1504.5,325C 1517.48,319.019 1527.65,309.852 1535,297.5C 1544.17,287.995 1555.34,282.995 1568.5,282.5C 1569.07,289.367 1570.57,296.034 1573,302.5C 1577.85,317.188 1587.69,326.521 1602.5,330.5C 1602.54,338.187 1602.21,345.854 1601.5,353.5 Z"/></g>
<g><path style="opacity:0.952" fill="#de9192" d="M 922.5,272.5 C 922.5,280.833 922.5,289.167 922.5,297.5C 922.5,298.167 922.5,298.833 922.5,299.5C 922.556,312.176 922.889,324.842 923.5,337.5C 903.941,330.047 896.107,316.047 900,295.5C 902.195,292.037 905.361,290.704 909.5,291.5C 913.722,293.194 917.555,295.528 921,298.5C 921.17,289.657 921.67,280.99 922.5,272.5 Z"/></g>
<g><path style="opacity:1" fill="#fef4f4" d="M 1056.5,299.5 C 1057.17,299.5 1057.83,299.5 1058.5,299.5C 1059.49,301.123 1058.82,302.123 1056.5,302.5C 1050.43,304.024 1044.43,305.857 1038.5,308C 1035.06,323.555 1025.4,330.555 1009.5,329C 1000.04,325.378 995.037,318.545 994.5,308.5C 990.5,308.5 986.5,308.5 982.5,308.5C 979.89,324.32 970.557,331.153 954.5,329C 944.997,325.166 939.664,318.166 938.5,308C 932.981,305.409 927.648,302.575 922.5,299.5C 922.5,298.833 922.5,298.167 922.5,297.5C 927.807,300.153 933.14,302.82 938.5,305.5C 940.517,295.317 946.517,288.817 956.5,286C 971.218,285.223 979.885,292.056 982.5,306.5C 986.5,306.5 990.5,306.5 994.5,306.5C 995.106,297.134 999.772,290.634 1008.5,287C 1023.97,284.068 1033.64,290.234 1037.5,305.5C 1044.17,304.255 1050.5,302.255 1056.5,299.5 Z"/></g>
<g><path style="opacity:1" fill="#fca7a8" d="M 1009.5,288.5 C 1025.98,286.823 1034.48,294.156 1035,310.5C 1031.69,323.078 1023.53,328.578 1010.5,327C 996.48,320.107 992.98,309.607 1000,295.5C 1002.79,292.535 1005.96,290.202 1009.5,288.5 Z"/></g>
<g><path style="opacity:1" fill="#fca7a8" d="M 954.5,288.5 C 967.409,286.199 975.909,291.199 980,303.5C 980.619,320.548 972.453,328.381 955.5,327C 942.425,320.777 938.592,310.944 944,297.5C 946.468,293.199 949.968,290.199 954.5,288.5 Z"/></g>
<g><path style="opacity:0.949" fill="#df9192" d="M 1067.5,294.5 C 1073.31,293.652 1077.14,295.985 1079,301.5C 1082.23,321.373 1074.4,334.706 1055.5,341.5C 1056.04,328.506 1056.37,315.506 1056.5,302.5C 1058.82,302.123 1059.49,301.123 1058.5,299.5C 1061.37,298.647 1064.03,297.314 1066.5,295.5C 1067.17,295.5 1067.5,295.167 1067.5,294.5 Z"/></g>
<g><path style="opacity:1" fill="#e698a0" d="M 1538.5,289.5 C 1539.24,289.369 1539.91,289.536 1540.5,290C 1538.3,292.54 1535.8,294.707 1533,296.5C 1526.06,308.103 1516.56,316.936 1504.5,323C 1501.5,323.667 1498.5,323.667 1495.5,323C 1502.33,320.164 1508.66,316.498 1514.5,312C 1522.09,303.901 1530.09,296.401 1538.5,289.5 Z"/></g>
<g><path style="opacity:1" fill="#e999a1" d="M 1571.5,288.5 C 1577.02,304.017 1586.35,316.851 1599.5,327C 1588.21,323.383 1580.38,315.883 1576,304.5C 1573.98,299.287 1572.48,293.954 1571.5,288.5 Z"/></g>
<g><path style="opacity:0.991" fill="#fca7a8" d="M 922.5,299.5 C 927.648,302.575 932.981,305.409 938.5,308C 939.664,318.166 944.997,325.166 954.5,329C 970.557,331.153 979.89,324.32 982.5,308.5C 986.5,308.5 990.5,308.5 994.5,308.5C 995.037,318.545 1000.04,325.378 1009.5,329C 1025.4,330.555 1035.06,323.555 1038.5,308C 1044.43,305.857 1050.43,304.024 1056.5,302.5C 1056.37,315.506 1056.04,328.506 1055.5,341.5C 1052.91,363.684 1043.24,382.017 1026.5,396.5C 1006.13,414.338 983.794,417.172 959.5,405C 956.271,402.259 952.938,399.759 949.5,397.5C 933.197,380.886 924.53,360.886 923.5,337.5C 922.889,324.842 922.556,312.176 922.5,299.5 Z"/></g>
<g><path style="opacity:1" fill="#180e49" d="M 959.5,304.5 C 967.877,304.274 969.544,307.441 964.5,314C 957.488,313.812 955.821,310.646 959.5,304.5 Z"/></g>
<g><path style="opacity:1" fill="#20124b" d="M 1011.5,304.5 C 1016.84,304.005 1019.34,306.338 1019,311.5C 1012.94,316.332 1009.61,314.999 1009,307.5C 1009.7,306.309 1010.53,305.309 1011.5,304.5 Z"/></g>
<g><path style="opacity:1" fill="#2c1d60" d="M 1543.5,323.5 C 1552.9,324.545 1562.23,326.045 1571.5,328C 1573.57,332.083 1572.41,334.25 1568,334.5C 1560.19,332.872 1552.36,331.372 1544.5,330C 1542.32,328.102 1541.98,325.936 1543.5,323.5 Z"/></g>
<g><path style="opacity:1" fill="#d58c9a" d="M 1453.5,324.5 C 1453.56,323.957 1453.89,323.624 1454.5,323.5C 1461.92,325.965 1469.59,327.132 1477.5,327C 1475.32,327.867 1473.15,328.701 1471,329.5C 1464.94,328.533 1459.1,326.866 1453.5,324.5 Z"/></g>
<g><path style="opacity:1" fill="#23154d" d="M 981.5,334.5 C 982.153,338.093 982.986,341.759 984,345.5C 985.78,346.594 987.614,347.594 989.5,348.5C 983.058,349.395 980.058,346.395 980.5,339.5C 980.592,337.742 980.925,336.076 981.5,334.5 Z"/></g>
<g><path style="opacity:1" fill="#fef4f4" d="M 1601.5,353.5 C 1603.84,354.625 1603.51,355.625 1600.5,356.5C 1593.48,358.038 1586.48,359.705 1579.5,361.5C 1573.3,383.099 1559.97,389.265 1539.5,380C 1533.54,375.293 1530.54,369.126 1530.5,361.5C 1525.83,361.5 1521.17,361.5 1516.5,361.5C 1515.67,373.673 1509.33,381.173 1497.5,384C 1480.54,385.509 1470.54,377.843 1467.5,361C 1462.03,359.094 1456.69,356.928 1451.5,354.5C 1450.24,354.539 1449.24,354.039 1448.5,353C 1448.73,352.601 1449.06,352.435 1449.5,352.5C 1455.94,354.22 1462.27,356.22 1468.5,358.5C 1470.3,345.038 1477.96,337.705 1491.5,336.5C 1506.59,336.922 1514.92,344.589 1516.5,359.5C 1521.17,359.5 1525.83,359.5 1530.5,359.5C 1531.01,348.154 1536.67,340.654 1547.5,337C 1564.63,334.66 1574.96,341.827 1578.5,358.5C 1586.38,357.276 1594.05,355.609 1601.5,353.5 Z"/></g>
<g><path style="opacity:1" fill="#fca7a8" d="M 1486.5,338.5 C 1505.85,337.355 1515.02,346.355 1514,365.5C 1509.47,378.523 1500.3,384.023 1486.5,382C 1470.58,374.16 1466.74,362.327 1475,346.5C 1478.48,343.161 1482.32,340.494 1486.5,338.5 Z"/></g>
<g><path style="opacity:1" fill="#fca7a8" d="M 1548.5,338.5 C 1567.5,337.668 1576.67,346.668 1576,365.5C 1568.66,382.392 1556.82,386.559 1540.5,378C 1533.45,371.316 1530.95,363.149 1533,353.5C 1536.11,346.225 1541.27,341.225 1548.5,338.5 Z"/></g>
<g><path style="opacity:0.985" fill="#fca6a7" d="M 487.5,439.5 C 479.441,444.296 471.941,449.962 465,456.5C 457.115,466.157 454.115,477.157 456,489.5C 457.827,496.821 460.494,503.821 464,510.5C 464.5,510 465,509.5 465.5,509C 450.384,479.4 457.717,457.233 487.5,442.5C 488.386,441.675 488.719,440.675 488.5,439.5C 491.159,429.023 494.325,418.69 498,408.5C 501.743,404.741 506.243,403.574 511.5,405C 512.931,405.465 514.097,406.299 515,407.5C 516.534,411.711 516.867,416.044 516,420.5C 511.909,440.048 508.575,459.715 506,479.5C 504.56,485.153 502.727,490.653 500.5,496C 542.547,547.259 584.714,598.425 627,649.5C 640.729,634.609 654.229,619.609 667.5,604.5C 668.239,604.369 668.906,604.536 669.5,605C 701.777,637.11 733.777,669.276 765.5,701.5C 739.457,730.046 712.457,757.88 684.5,785C 664.748,800.855 642.415,806.521 617.5,802C 608.845,797.671 600.845,792.338 593.5,786C 581.043,774.536 569.877,762.036 560,748.5C 517.747,675.663 475.747,602.663 434,529.5C 415.24,501.732 394.574,475.399 372,450.5C 365.217,442.59 359.717,433.923 355.5,424.5C 356.28,418.602 359.613,416.435 365.5,418C 369.667,422.833 373.833,427.667 378,432.5C 382.094,437.102 386.594,441.102 391.5,444.5C 394.17,448.508 396.836,452.508 399.5,456.5C 415.811,441.753 434.311,430.42 455,422.5C 455.688,421.668 455.521,421.002 454.5,420.5C 451.476,422.581 448.31,423.247 445,422.5C 440.105,412.71 435.272,403.044 430.5,393.5C 424.382,379.482 419.049,365.148 414.5,350.5C 416.665,341.385 421.999,338.885 430.5,343C 439.586,362.004 449.086,380.838 459,399.5C 467.555,413.547 477.055,426.88 487.5,439.5 Z"/></g>
<g><path style="opacity:0.95" fill="#fca6a7" d="M 439.5,417.5 C 440.164,419.487 441.331,421.154 443,422.5C 443.749,423.635 443.583,424.635 442.5,425.5C 435.237,429.38 428.07,433.38 421,437.5C 416.259,429.69 411.759,421.69 407.5,413.5C 407.043,412.702 406.376,412.369 405.5,412.5C 398.77,397.82 391.936,383.154 385,368.5C 382.658,360.172 385.658,355.172 394,353.5C 397.455,353.871 400.455,355.205 403,357.5C 410.922,372.344 418.589,387.344 426,402.5C 429.705,408.364 434.205,413.364 439.5,417.5 Z"/></g>
<g><path style="opacity:1" fill="#dd9092" d="M 1451.5,356.5 C 1453.27,367.852 1455.6,379.186 1458.5,390.5C 1437.49,390.18 1428.32,379.513 1431,358.5C 1431.78,356.714 1432.95,355.214 1434.5,354C 1440.66,351.824 1446.16,352.991 1451,357.5C 1451.4,357.272 1451.57,356.938 1451.5,356.5 Z"/></g>
<g><path style="opacity:1" fill="#dd9092" d="M 1592.5,390.5 C 1596.1,380.107 1598.76,369.44 1600.5,358.5C 1603.65,356.423 1606.98,354.59 1610.5,353C 1619.38,351.764 1623.71,355.597 1623.5,364.5C 1621.72,383.28 1611.38,391.947 1592.5,390.5 Z"/></g>
<g><path style="opacity:1" fill="#fca6a8" d="M 1451.5,354.5 C 1456.69,356.928 1462.03,359.094 1467.5,361C 1470.54,377.843 1480.54,385.509 1497.5,384C 1509.33,381.173 1515.67,373.673 1516.5,361.5C 1521.17,361.5 1525.83,361.5 1530.5,361.5C 1530.54,369.126 1533.54,375.293 1539.5,380C 1559.97,389.265 1573.3,383.099 1579.5,361.5C 1586.48,359.705 1593.48,358.038 1600.5,356.5C 1600.5,357.167 1600.5,357.833 1600.5,358.5C 1598.76,369.44 1596.1,380.107 1592.5,390.5C 1586.71,410.944 1575.71,427.944 1559.5,441.5C 1532.22,459.483 1506.89,457.15 1483.5,434.5C 1472.07,421.656 1463.74,406.989 1458.5,390.5C 1455.6,379.186 1453.27,367.852 1451.5,356.5C 1451.5,355.833 1451.5,355.167 1451.5,354.5 Z"/></g>
<g><path style="opacity:1" fill="#1b1049" d="M 1491.5,356.5 C 1496.42,355.784 1499.42,357.784 1500.5,362.5C 1499.13,367.078 1496.13,368.578 1491.5,367C 1487.57,363.504 1487.57,360.004 1491.5,356.5 Z"/></g>
<g><path style="opacity:1" fill="#1b104a" d="M 1549.5,356.5 C 1554.42,355.784 1557.42,357.784 1558.5,362.5C 1557.13,367.078 1554.13,368.578 1549.5,367C 1545.57,363.504 1545.57,360.004 1549.5,356.5 Z"/></g>
<g><path style="opacity:1" fill="#fffcfc" d="M 967.5,359.5 C 981.167,359.5 994.833,359.5 1008.5,359.5C 1006.7,368.122 1002.03,374.622 994.5,379C 985.48,382.083 978.314,379.583 973,371.5C 970.881,367.598 969.048,363.598 967.5,359.5 Z"/></g>
<g><path style="opacity:0.947" fill="#fba6a7" d="M 410.5,426.5 C 410.5,427.167 410.833,427.5 411.5,427.5C 411.328,428.492 411.662,429.158 412.5,429.5C 412.5,430.167 412.833,430.5 413.5,430.5C 415.774,433.229 417.274,436.229 418,439.5C 412.022,443.977 406.189,448.643 400.5,453.5C 394.676,444.528 389.343,435.194 384.5,425.5C 384.043,424.702 383.376,424.369 382.5,424.5C 376.487,410.644 369.987,396.977 363,383.5C 362.383,372.132 367.55,368.298 378.5,372C 386.048,384.927 393.214,398.093 400,411.5C 403.03,416.916 406.53,421.916 410.5,426.5 Z"/></g>
<g><path style="opacity:1" fill="#2a1950" d="M 1515.5,378.5 C 1516.38,378.369 1517.04,378.702 1517.5,379.5C 1514.9,387.41 1517.57,392.41 1525.5,394.5C 1517.72,395.392 1514.06,391.725 1514.5,383.5C 1514.59,381.742 1514.92,380.076 1515.5,378.5 Z"/></g>
<g><path style="opacity:0.989" fill="#e09293" d="M 1026.5,396.5 C 1026.5,409.167 1026.5,421.833 1026.5,434.5C 1025.52,438.634 1025.18,442.968 1025.5,447.5C 1018.48,471.308 1002.48,481.808 977.5,479C 966.443,475.611 958.943,468.444 955,457.5C 953.391,450.724 951.891,444.058 950.5,437.5C 950.737,436.209 950.404,435.209 949.5,434.5C 949.5,422.167 949.5,409.833 949.5,397.5C 952.938,399.759 956.271,402.259 959.5,405C 983.794,417.172 1006.13,414.338 1026.5,396.5 Z"/></g>
<g><path style="opacity:0.987" fill="#fca6a7" d="M 2112.5,427.5 C 2110.09,427.921 2108.26,429.254 2107,431.5C 2101.05,440.447 2094.72,449.114 2088,457.5C 2086.67,467.167 2090.84,471.001 2100.5,469C 2102.59,468.208 2104.42,467.041 2106,465.5C 2108.3,473.113 2113.14,475.279 2120.5,472C 2122.3,470.188 2123.97,468.355 2125.5,466.5C 2120.28,477.27 2114.78,487.937 2109,498.5C 2105.78,504.437 2101.95,509.937 2097.5,515C 2089.07,519.154 2080.24,520.321 2071,518.5C 2069.29,518.439 2067.96,519.106 2067,520.5C 2020.25,604.328 1973.25,687.995 1926,771.5C 1900.66,806.377 1867.82,816.211 1827.5,801C 1822.99,798.247 1818.66,795.247 1814.5,792C 1790.97,767.633 1767.3,743.467 1743.5,719.5C 1751.53,710.806 1759.86,702.473 1768.5,694.5C 1786.52,678.145 1804.52,661.811 1822.5,645.5C 1833.79,654.957 1844.96,664.624 1856,674.5C 1911.09,603.985 1966.43,533.652 2022,463.5C 2033.34,446.161 2042.01,427.494 2048,407.5C 2053.72,401.591 2060.55,399.925 2068.5,402.5C 2080.43,378.817 2092.76,355.317 2105.5,332C 2112.74,329.364 2117.08,331.864 2118.5,339.5C 2110.8,361.427 2103.63,383.427 2097,405.5C 2107.25,386.658 2117.25,367.658 2127,348.5C 2130.77,344.212 2135.27,343.379 2140.5,346C 2143.87,349.762 2144.37,353.928 2142,358.5C 2132.15,381.526 2122.32,404.526 2112.5,427.5 Z"/></g>
<g><path style="opacity:1" fill="#fffcfc" d="M 1500.5,406.5 C 1515.85,406.167 1531.18,406.501 1546.5,407.5C 1543.79,415.085 1539.46,421.585 1533.5,427C 1522.17,432.243 1513,429.743 1506,419.5C 1503.6,415.376 1501.77,411.043 1500.5,406.5 Z"/></g>
<g><path style="opacity:0.984" fill="#f8a4a6" d="M 2112.5,428.5 C 2116.54,430.848 2120.54,433.182 2124.5,435.5C 2117.55,445.873 2110.22,456.04 2102.5,466C 2097.89,468.402 2093.72,467.902 2090,464.5C 2089.33,462.5 2089.33,460.5 2090,458.5C 2097.36,448.316 2104.86,438.316 2112.5,428.5 Z"/></g>
<g><path style="opacity:0.996" fill="#4267fe" d="M 949.5,434.5 C 950.404,435.209 950.737,436.209 950.5,437.5C 949.311,451.198 953.311,463.364 962.5,474C 972.371,481.132 983.371,483.465 995.5,481C 1010.83,477.001 1021,467.501 1026,452.5C 1026.78,450.613 1026.61,448.946 1025.5,447.5C 1025.18,442.968 1025.52,438.634 1026.5,434.5C 1050.84,434.333 1075.17,434.5 1099.5,435C 1113.97,436.489 1127.3,441.156 1139.5,449C 1147.7,453.935 1155.37,459.601 1162.5,466C 1207.67,509.833 1252.83,553.667 1298,597.5C 1298.32,598.908 1297.98,600.241 1297,601.5C 1295.62,602.705 1294.46,604.038 1293.5,605.5C 1289.93,607.557 1286.77,610.223 1284,613.5C 1269.67,629.667 1254.83,645.334 1239.5,660.5C 1235.61,658.938 1232.27,656.605 1229.5,653.5C 1248.29,632.204 1267.29,611.037 1286.5,590C 1286,589.5 1285.5,589 1285,588.5C 1265.63,610.029 1246.13,631.362 1226.5,652.5C 1196.5,632.167 1166.5,611.833 1136.5,591.5C 1136.25,586.338 1135.25,581.338 1133.5,576.5C 1133.17,577.333 1132.83,578.167 1132.5,579C 1136.16,607.803 1139.5,636.637 1142.5,665.5C 1142.5,666.167 1142.83,666.5 1143.5,666.5C 1143.5,667.167 1143.83,667.5 1144.5,667.5C 1148.33,717.153 1152,766.82 1155.5,816.5C 1156.05,833.978 1152.05,850.311 1143.5,865.5C 1071.5,879.555 1001.83,872.055 934.5,843C 911.003,831.835 894.836,814.002 886,789.5C 874.929,758.513 869.763,726.513 870.5,693.5C 870.4,665.892 872.566,638.558 877,611.5C 873.667,614.833 870.333,618.167 867,621.5C 866.601,621.272 866.435,620.938 866.5,620.5C 871.926,613.57 877.926,607.07 884.5,601C 884,600.5 883.5,600 883,599.5C 859.661,624.339 836.161,649.005 812.5,673.5C 799.676,684.759 787.009,696.259 774.5,708C 773.833,708.667 773.167,708.667 772.5,708C 770.297,705.628 767.963,703.461 765.5,701.5C 733.777,669.276 701.777,637.11 669.5,605C 668.906,604.536 668.239,604.369 667.5,604.5C 665.856,602.519 664.19,600.519 662.5,598.5C 666.189,594.48 669.855,590.48 673.5,586.5C 677.606,589.429 681.606,592.596 685.5,596C 717.348,627.348 749.348,658.515 781.5,689.5C 782.521,688.998 782.688,688.332 782,687.5C 749.137,654.97 715.971,622.803 682.5,591C 679.882,588.894 677.882,586.394 676.5,583.5C 712.993,547.84 748.993,511.674 784.5,475C 796.313,464.183 808.98,454.516 822.5,446C 833.114,440.129 844.447,436.462 856.5,435C 887.498,434.5 918.498,434.333 949.5,434.5 Z"/></g>
<g><path style="opacity:1" fill="#df9293" d="M 1483.5,434.5 C 1506.89,457.15 1532.22,459.483 1559.5,441.5C 1561.62,463.793 1563.29,486.127 1564.5,508.5C 1578.11,507.078 1591.78,506.411 1605.5,506.5C 1600.72,524.788 1590.06,538.621 1573.5,548C 1542.69,564.687 1510.02,570.021 1475.5,564C 1458.34,558.257 1444.67,547.924 1434.5,533C 1434.83,532.667 1435.17,532.333 1435.5,532C 1434.25,531.26 1433.25,531.427 1432.5,532.5C 1431.83,532.5 1431.17,532.5 1430.5,532.5C 1434.41,527.678 1438.08,522.678 1441.5,517.5C 1448.53,519.714 1455.69,521.381 1463,522.5C 1467.86,521.603 1472.69,520.603 1477.5,519.5C 1479.38,491.158 1481.38,462.825 1483.5,434.5 Z"/></g>
<g><path style="opacity:0.958" fill="#f9a4a6" d="M 2126.5,436.5 C 2134.59,443.474 2135.59,451.474 2129.5,460.5C 2125.44,462.721 2122.11,465.887 2119.5,470C 2111.32,472.99 2107.82,470.156 2109,461.5C 2114.85,453.109 2120.69,444.775 2126.5,436.5 Z"/></g>
<g><path style="opacity:1" fill="#22144c" d="M 430.5,393.5 C 435.272,403.044 440.105,412.71 445,422.5C 448.31,423.247 451.476,422.581 454.5,420.5C 455.521,421.002 455.688,421.668 455,422.5C 434.311,430.42 415.811,441.753 399.5,456.5C 396.836,452.508 394.17,448.508 391.5,444.5C 388.195,438.184 384.862,431.85 381.5,425.5C 381.624,424.893 381.957,424.56 382.5,424.5C 383.376,424.369 384.043,424.702 384.5,425.5C 389.343,435.194 394.676,444.528 400.5,453.5C 406.189,448.643 412.022,443.977 418,439.5C 417.274,436.229 415.774,433.229 413.5,430.5C 412.833,430.5 412.5,430.167 412.5,429.5C 412.672,428.508 412.338,427.842 411.5,427.5C 410.833,427.5 410.5,427.167 410.5,426.5C 408.785,422.069 406.785,417.735 404.5,413.5C 404.624,412.893 404.957,412.56 405.5,412.5C 406.376,412.369 407.043,412.702 407.5,413.5C 411.759,421.69 416.259,429.69 421,437.5C 428.07,433.38 435.237,429.38 442.5,425.5C 443.583,424.635 443.749,423.635 443,422.5C 441.331,421.154 440.164,419.487 439.5,417.5C 436.074,410.981 432.908,404.314 430,397.5C 429.235,395.934 429.402,394.601 430.5,393.5 Z"/></g>
<g><path style="opacity:1" fill="#2c1950" d="M 2068.5,402.5 C 2079.47,408.989 2090.47,415.489 2101.5,422C 2107.44,429.181 2105.77,434.181 2096.5,437C 2088.62,437.971 2080.96,437.138 2073.5,434.5C 2081.83,454.909 2078.33,472.909 2063,488.5C 2062.33,487.5 2062.33,486.5 2063,485.5C 2073.85,474.288 2077.85,460.955 2075,445.5C 2073.5,440.501 2071.34,435.835 2068.5,431.5C 2068.83,431.167 2069.17,430.833 2069.5,430.5C 2077.77,434.429 2086.44,435.929 2095.5,435C 2103.05,432.988 2104.39,428.988 2099.5,423C 2089.34,417.419 2079.34,411.586 2069.5,405.5C 2068.61,404.675 2068.28,403.675 2068.5,402.5 Z"/></g>
<g><path style="opacity:1" fill="#28174f" d="M 2112.5,427.5 C 2112.5,427.833 2112.5,428.167 2112.5,428.5C 2104.86,438.316 2097.36,448.316 2090,458.5C 2089.33,460.5 2089.33,462.5 2090,464.5C 2093.72,467.902 2097.89,468.402 2102.5,466C 2110.22,456.04 2117.55,445.873 2124.5,435.5C 2125.17,435.833 2125.83,436.167 2126.5,436.5C 2120.69,444.775 2114.85,453.109 2109,461.5C 2107.82,470.156 2111.32,472.99 2119.5,470C 2122.11,465.887 2125.44,462.721 2129.5,460.5C 2129.16,463.198 2127.82,465.198 2125.5,466.5C 2123.97,468.355 2122.3,470.188 2120.5,472C 2113.14,475.279 2108.3,473.113 2106,465.5C 2104.42,467.041 2102.59,468.208 2100.5,469C 2090.84,471.001 2086.67,467.167 2088,457.5C 2094.72,449.114 2101.05,440.447 2107,431.5C 2108.26,429.254 2110.09,427.921 2112.5,427.5 Z"/></g>
<g><path style="opacity:1" fill="#2b1950" d="M 487.5,439.5 C 487.833,439.5 488.167,439.5 488.5,439.5C 488.719,440.675 488.386,441.675 487.5,442.5C 457.717,457.233 450.384,479.4 465.5,509C 465,509.5 464.5,510 464,510.5C 460.494,503.821 457.827,496.821 456,489.5C 454.115,477.157 457.115,466.157 465,456.5C 471.941,449.962 479.441,444.296 487.5,439.5 Z"/></g>
<g><path style="opacity:1" fill="#f0edf8" d="M 950.5,437.5 C 951.891,444.058 953.391,450.724 955,457.5C 958.943,468.444 966.443,475.611 977.5,479C 1002.48,481.808 1018.48,471.308 1025.5,447.5C 1026.61,448.946 1026.78,450.613 1026,452.5C 1021,467.501 1010.83,477.001 995.5,481C 983.371,483.465 972.371,481.132 962.5,474C 953.311,463.364 949.311,451.198 950.5,437.5 Z"/></g>
<g><path style="opacity:0.997" fill="#03cdf8" d="M 1608.5,505.5 C 1616.17,505.5 1623.83,505.5 1631.5,505.5C 1647.59,505.452 1663.59,506.619 1679.5,509C 1698.87,513.186 1715.87,521.853 1730.5,535C 1759.73,564.731 1789.4,593.898 1819.5,622.5C 1799.22,644.45 1778.22,665.783 1756.5,686.5C 1736.86,672.342 1716.86,658.675 1696.5,645.5C 1696.83,637.804 1696.5,630.138 1695.5,622.5C 1694.17,645.997 1694.17,669.33 1695.5,692.5C 1693.36,734.142 1691.7,775.809 1690.5,817.5C 1672.34,826.276 1653.34,832.776 1633.5,837C 1617.25,840.017 1600.92,842.184 1584.5,843.5C 1531.74,740.312 1478.74,637.312 1425.5,534.5C 1426.93,533.463 1428.6,532.796 1430.5,532.5C 1431.17,532.5 1431.83,532.5 1432.5,532.5C 1445.76,553.979 1465.09,566.146 1490.5,569C 1522.88,570.405 1552.88,562.738 1580.5,546C 1593.76,535.906 1603.42,523.072 1609.5,507.5C 1609.14,506.817 1608.8,506.15 1608.5,505.5 Z"/></g>
<g><path style="opacity:1" fill="#251b5e" d="M 1425.5,534.5 C 1478.74,637.312 1531.74,740.312 1584.5,843.5C 1592.24,859.987 1600.24,876.32 1608.5,892.5C 1595.45,893.372 1582.45,892.705 1569.5,890.5C 1571.74,889.526 1574.08,889.192 1576.5,889.5C 1575.03,885.224 1573.03,881.224 1570.5,877.5C 1564.48,866.132 1558.48,854.799 1552.5,843.5C 1513.2,764.908 1473.37,686.575 1433,608.5C 1421.61,586.378 1410.77,564.045 1400.5,541.5C 1408.65,538.562 1416.98,536.228 1425.5,534.5 Z"/></g>
<g><path style="opacity:0.998" fill="#06cdf8" d="M 1400.5,541.5 C 1410.77,564.045 1421.61,586.378 1433,608.5C 1473.37,686.575 1513.2,764.908 1552.5,843.5C 1552.39,844.117 1552.06,844.617 1551.5,845C 1516.06,846.403 1480.72,845.07 1445.5,841C 1431.69,836.526 1422.53,827.359 1418,813.5C 1410.33,789.783 1405.99,765.45 1405,740.5C 1404.5,728.171 1404.33,715.838 1404.5,703.5C 1404.51,701.453 1404.84,699.453 1405.5,697.5C 1404.83,694.833 1404.17,694.833 1403.5,697.5C 1398.36,715.74 1393.69,734.073 1389.5,752.5C 1384.62,764.595 1379.45,776.595 1374,788.5C 1373.31,790.555 1372.15,792.221 1370.5,793.5C 1329.67,783.377 1288.67,774.043 1247.5,765.5C 1242.85,764.338 1238.18,763.171 1233.5,762C 1235.31,758.219 1236.97,754.385 1238.5,750.5C 1280.92,759.522 1323.26,769.022 1365.5,779C 1367.26,779.798 1368.93,779.631 1370.5,778.5C 1327.22,768.477 1283.89,758.644 1240.5,749C 1239.94,748.617 1239.61,748.117 1239.5,747.5C 1240.4,746.71 1241.07,745.71 1241.5,744.5C 1262.01,700.807 1282.01,656.807 1301.5,612.5C 1309.19,588.972 1324.19,571.806 1346.5,561C 1363.82,552.615 1381.82,546.115 1400.5,541.5 Z"/></g>
<g><path style="opacity:1" fill="#e9f3f7" d="M 1608.5,505.5 C 1608.8,506.15 1609.14,506.817 1609.5,507.5C 1603.42,523.072 1593.76,535.906 1580.5,546C 1552.88,562.738 1522.88,570.405 1490.5,569C 1465.09,566.146 1445.76,553.979 1432.5,532.5C 1433.25,531.427 1434.25,531.26 1435.5,532C 1435.17,532.333 1434.83,532.667 1434.5,533C 1444.67,547.924 1458.34,558.257 1475.5,564C 1510.02,570.021 1542.69,564.687 1573.5,548C 1590.06,538.621 1600.72,524.788 1605.5,506.5C 1606.39,505.89 1607.39,505.557 1608.5,505.5 Z"/></g>
<g><path style="opacity:1" fill="#15155b" d="M 1136.5,591.5 C 1138.73,615.897 1141.4,640.23 1144.5,664.5C 1144.04,665.298 1143.38,665.631 1142.5,665.5C 1139.5,636.637 1136.16,607.803 1132.5,579C 1132.83,578.167 1133.17,577.333 1133.5,576.5C 1135.25,581.338 1136.25,586.338 1136.5,591.5 Z"/></g>
<g><path style="opacity:1" fill="#3d5fea" d="M 1136.5,591.5 C 1166.5,611.833 1196.5,632.167 1226.5,652.5C 1214.54,666.296 1202.37,679.962 1190,693.5C 1189.31,694.332 1189.48,694.998 1190.5,695.5C 1203.52,681.48 1216.52,667.48 1229.5,653.5C 1232.27,656.605 1235.61,658.938 1239.5,660.5C 1226.56,675.446 1213.22,690.112 1199.5,704.5C 1181.02,692.425 1162.69,680.091 1144.5,667.5C 1143.83,667.5 1143.5,667.167 1143.5,666.5C 1142.83,666.5 1142.5,666.167 1142.5,665.5C 1143.38,665.631 1144.04,665.298 1144.5,664.5C 1141.4,640.23 1138.73,615.897 1136.5,591.5 Z"/></g>
<g><path style="opacity:0.989" fill="#fca6a8" d="M 1293.5,605.5 C 1296.17,607.833 1298.83,610.167 1301.5,612.5C 1282.01,656.807 1262.01,700.807 1241.5,744.5C 1227.17,731.504 1213.17,718.171 1199.5,704.5C 1213.22,690.112 1226.56,675.446 1239.5,660.5C 1254.83,645.334 1269.67,629.667 1284,613.5C 1286.77,610.223 1289.93,607.557 1293.5,605.5 Z"/></g>
<g><path style="opacity:1" fill="#e9ecff" d="M 676.5,583.5 C 677.882,586.394 679.882,588.894 682.5,591C 715.971,622.803 749.137,654.97 782,687.5C 782.688,688.332 782.521,688.998 781.5,689.5C 749.348,658.515 717.348,627.348 685.5,596C 681.606,592.596 677.606,589.429 673.5,586.5C 671.891,585.102 671.058,583.435 671,581.5C 671.414,581.043 671.914,580.709 672.5,580.5C 673.852,581.524 675.185,582.524 676.5,583.5 Z"/></g>
<g><path style="opacity:1" fill="#3c5eea" d="M 1143.5,865.5 C 1143.5,865.833 1143.5,866.167 1143.5,866.5C 1140.02,872.141 1135.36,876.641 1129.5,880C 1096.54,898.075 1061.21,907.742 1023.5,909C 980.217,912.247 937.55,908.58 895.5,898C 883.225,894.52 871.225,890.353 859.5,885.5C 859.158,884.662 858.492,884.328 857.5,884.5C 854.389,882.441 851.056,880.608 847.5,879C 844.969,875.642 842.302,872.476 839.5,869.5C 829.681,853.882 823.515,836.882 821,818.5C 819.624,769.512 819.124,720.512 819.5,671.5C 819.709,670.078 820.209,668.745 821,667.5C 836.034,651.634 851.2,635.967 866.5,620.5C 866.435,620.938 866.601,621.272 867,621.5C 870.333,618.167 873.667,614.833 877,611.5C 872.566,638.558 870.4,665.892 870.5,693.5C 869.763,726.513 874.929,758.513 886,789.5C 894.836,814.002 911.003,831.835 934.5,843C 1001.83,872.055 1071.5,879.555 1143.5,865.5 Z"/></g>
<g><path style="opacity:0.97" fill="#14235b" d="M 1696.5,645.5 C 1696.5,659.833 1696.5,674.167 1696.5,688.5C 1696.77,690.099 1696.43,691.432 1695.5,692.5C 1694.17,669.33 1694.17,645.997 1695.5,622.5C 1696.5,630.138 1696.83,637.804 1696.5,645.5 Z"/></g>
<g><path style="opacity:1" fill="#131256" d="M 866.5,620.5 C 851.2,635.967 836.034,651.634 821,667.5C 820.209,668.745 819.709,670.078 819.5,671.5C 817.852,672.81 816.186,674.143 814.5,675.5C 813.478,675.145 812.811,674.478 812.5,673.5C 836.161,649.005 859.661,624.339 883,599.5C 883.5,600 884,600.5 884.5,601C 877.926,607.07 871.926,613.57 866.5,620.5 Z"/></g>
<g><path style="opacity:0.984" fill="#19cef8" d="M 1822.5,625.5 C 1825.68,628.845 1828.68,632.345 1831.5,636C 1828.32,639.015 1825.32,642.181 1822.5,645.5C 1804.52,661.811 1786.52,678.145 1768.5,694.5C 1765.3,691.623 1761.63,689.623 1757.5,688.5C 1778.61,667.895 1799.61,647.062 1820.5,626C 1821.09,625.536 1821.76,625.369 1822.5,625.5 Z"/></g>
<g><path style="opacity:1" fill="#effbfe" d="M 1822.5,625.5 C 1821.76,625.369 1821.09,625.536 1820.5,626C 1799.61,647.062 1778.61,667.895 1757.5,688.5C 1749.37,696.131 1741.37,703.964 1733.5,712C 1732.67,712.688 1732,712.521 1731.5,711.5C 1739.55,702.785 1747.88,694.452 1756.5,686.5C 1778.22,665.783 1799.22,644.45 1819.5,622.5C 1822.83,621.167 1823.83,622.167 1822.5,625.5 Z"/></g>
<g><path style="opacity:1" fill="#e8ebfe" d="M 1229.5,653.5 C 1216.52,667.48 1203.52,681.48 1190.5,695.5C 1189.48,694.998 1189.31,694.332 1190,693.5C 1202.37,679.962 1214.54,666.296 1226.5,652.5C 1246.13,631.362 1265.63,610.029 1285,588.5C 1285.5,589 1286,589.5 1286.5,590C 1267.29,611.037 1248.29,632.204 1229.5,653.5 Z"/></g>
<g><path style="opacity:1" fill="#08bbe3" d="M 1696.5,645.5 C 1716.86,658.675 1736.86,672.342 1756.5,686.5C 1747.88,694.452 1739.55,702.785 1731.5,711.5C 1732,712.521 1732.67,712.688 1733.5,712C 1741.37,703.964 1749.37,696.131 1757.5,688.5C 1761.63,689.623 1765.3,691.623 1768.5,694.5C 1759.86,702.473 1751.53,710.806 1743.5,719.5C 1742.16,721.113 1740.5,721.613 1738.5,721C 1724.65,709.916 1710.65,699.083 1696.5,688.5C 1696.5,674.167 1696.5,659.833 1696.5,645.5 Z"/></g>
<g><path style="opacity:1" fill="#2b1950" d="M 626.5,650.5 C 627.931,650.881 628.764,651.881 629,653.5C 630.948,665.574 633.281,677.574 636,689.5C 636.667,692.167 636.667,694.833 636,697.5C 632.387,681.936 629.22,666.269 626.5,650.5 Z"/></g>
<g><path style="opacity:1" fill="#4c2f5e" d="M 1855.5,675.5 C 1856.83,682.133 1857.5,689.133 1857.5,696.5C 1857.17,703.5 1856.83,710.5 1856.5,717.5C 1855.5,703.516 1855.17,689.516 1855.5,675.5 Z"/></g>
<g><path style="opacity:1" fill="#08bae2" d="M 1404.5,703.5 C 1404.33,715.838 1404.5,728.171 1405,740.5C 1405.99,765.45 1410.33,789.783 1418,813.5C 1422.53,827.359 1431.69,836.526 1445.5,841C 1480.72,845.07 1516.06,846.403 1551.5,845C 1552.06,844.617 1552.39,844.117 1552.5,843.5C 1558.48,854.799 1564.48,866.132 1570.5,877.5C 1515.81,889.891 1460.47,894.558 1404.5,891.5C 1395.38,878.252 1389.88,863.586 1388,847.5C 1387.89,824.824 1388.39,802.157 1389.5,779.5C 1389.5,770.485 1389.83,761.485 1390.5,752.5C 1395.45,736.265 1400.11,719.931 1404.5,703.5 Z"/></g>
<g><path style="opacity:1" fill="#13225b" d="M 1404.5,703.5 C 1400.11,719.931 1395.45,736.265 1390.5,752.5C 1390.17,752.5 1389.83,752.5 1389.5,752.5C 1393.69,734.073 1398.36,715.74 1403.5,697.5C 1404.17,694.833 1404.83,694.833 1405.5,697.5C 1404.84,699.453 1404.51,701.453 1404.5,703.5 Z"/></g>
<g><path style="opacity:0.994" fill="#fca6a7" d="M 1389.5,752.5 C 1389.83,752.5 1390.17,752.5 1390.5,752.5C 1389.83,761.485 1389.5,770.485 1389.5,779.5C 1382.17,786.662 1374.67,793.662 1367,800.5C 1354.26,830.903 1341.42,861.237 1328.5,891.5C 1300.68,894.051 1274.68,902.551 1250.5,917C 1251,917.5 1251.5,918 1252,918.5C 1281.18,901.365 1312.68,893.032 1346.5,893.5C 1365.84,892.9 1385.17,892.233 1404.5,891.5C 1460.47,894.558 1515.81,889.891 1570.5,877.5C 1573.03,881.224 1575.03,885.224 1576.5,889.5C 1574.08,889.192 1571.74,889.526 1569.5,890.5C 1582.45,892.705 1595.45,893.372 1608.5,892.5C 1619.58,892.81 1630.58,892.477 1641.5,891.5C 1644.64,892.321 1647.97,892.821 1651.5,893C 1658.39,895.807 1660.23,900.64 1657,907.5C 1655.04,910.135 1652.54,911.969 1649.5,913C 1639.98,914.211 1630.64,915.711 1621.5,917.5C 1618.81,917.336 1616.15,917.503 1613.5,918C 1616.28,919.392 1619.28,919.892 1622.5,919.5C 1628.85,920.15 1635.18,920.983 1641.5,922C 1643.08,922.707 1644.58,923.54 1646,924.5C 1647.43,927.39 1648.93,930.056 1650.5,932.5C 1649.79,933.404 1648.79,933.737 1647.5,933.5C 1647.36,938.778 1645.36,943.112 1641.5,946.5C 1625.48,947.138 1609.48,948.138 1593.5,949.5C 1596.17,949.833 1598.83,950.167 1601.5,950.5C 1614.5,949.733 1627.5,949.067 1640.5,948.5C 1640.5,948.833 1640.5,949.167 1640.5,949.5C 1640.17,950.167 1639.83,950.833 1639.5,951.5C 1638.15,957.02 1634.82,960.853 1629.5,963C 1616.9,966.651 1604.23,969.984 1591.5,973C 1605.89,976.133 1620.23,979.466 1634.5,983C 1637.09,986.736 1637.09,990.402 1634.5,994C 1619.4,994.102 1604.4,992.936 1589.5,990.5C 1588.83,990.5 1588.17,990.5 1587.5,990.5C 1579.47,989.094 1571.47,987.427 1563.5,985.5C 1544.97,979.825 1526.31,974.658 1507.5,970C 1494.2,968.528 1480.86,968.195 1467.5,969C 1464.05,969.529 1460.72,970.362 1457.5,971.5C 1456.83,971.5 1456.17,971.5 1455.5,971.5C 1440.07,974.453 1424.73,977.787 1409.5,981.5C 1407.9,981.232 1406.57,981.566 1405.5,982.5C 1390.7,985.409 1376.03,988.742 1361.5,992.5C 1337.26,998.515 1312.76,1003.18 1288,1006.5C 1243.4,1004.22 1213.4,982.219 1198,940.5C 1192.63,920.178 1193.63,900.178 1201,880.5C 1216.51,842.145 1232.01,803.812 1247.5,765.5C 1288.67,774.043 1329.67,783.377 1370.5,793.5C 1372.15,792.221 1373.31,790.555 1374,788.5C 1379.45,776.595 1384.62,764.595 1389.5,752.5 Z"/></g>
<g><path style="opacity:1" fill="#f1fcfe" d="M 1239.5,747.5 C 1239.61,748.117 1239.94,748.617 1240.5,749C 1283.89,758.644 1327.22,768.477 1370.5,778.5C 1368.93,779.631 1367.26,779.798 1365.5,779C 1323.26,769.022 1280.92,759.522 1238.5,750.5C 1234.3,751.155 1233.13,749.821 1235,746.5C 1236.36,747.38 1237.86,747.714 1239.5,747.5 Z"/></g>
<g><path style="opacity:1" fill="#04bae2" d="M 1690.5,817.5 C 1689.91,827.836 1688.91,838.169 1687.5,848.5C 1683.96,859.383 1678.29,869.05 1670.5,877.5C 1662.25,884.822 1652.58,889.489 1641.5,891.5C 1630.58,892.477 1619.58,892.81 1608.5,892.5C 1600.24,876.32 1592.24,859.987 1584.5,843.5C 1600.92,842.184 1617.25,840.017 1633.5,837C 1653.34,832.776 1672.34,826.276 1690.5,817.5 Z"/></g>
<g><path style="opacity:0.971" fill="#261a5e" d="M 1687.5,848.5 C 1698.18,869.86 1708.85,891.193 1719.5,912.5C 1710.1,913.766 1701.1,916.099 1692.5,919.5C 1685.18,905.531 1677.85,891.531 1670.5,877.5C 1678.29,869.05 1683.96,859.383 1687.5,848.5 Z"/></g>
<g><path style="opacity:0.996" fill="#171363" d="M 1143.5,866.5 C 1164.33,926.815 1177.16,988.815 1182,1052.5C 1191.01,1199.71 1197.01,1347.04 1200,1494.5C 1204.99,1707.15 1208.82,1919.81 1211.5,2132.5C 1201.83,2132.5 1192.17,2132.5 1182.5,2132.5C 1135.34,2131.5 1088,2131.17 1040.5,2131.5C 1023.33,1791.18 1006.33,1450.85 989.5,1110.5C 995.531,1073.71 1002.2,1037.04 1009.5,1000.5C 1008.68,999.614 1007.68,999.281 1006.5,999.5C 1000.72,1032.48 995.058,1065.48 989.5,1098.5C 988.081,1093.72 987.081,1088.72 986.5,1083.5C 986.167,1084.5 985.833,1085.5 985.5,1086.5C 986.403,1094.47 986.737,1102.47 986.5,1110.5C 986.493,1113.04 986.159,1115.54 985.5,1118C 985.684,1119.38 986.351,1120.21 987.5,1120.5C 1004.43,1457.5 1021.43,1794.5 1038.5,2131.5C 1035.94,2131.2 1033.61,2131.53 1031.5,2132.5C 1022.5,2132.5 1013.5,2132.5 1004.5,2132.5C 1003.91,1928.5 1003.07,1724.5 1002,1520.5C 997.039,1388.48 991.706,1256.48 986,1124.5C 977,1261.83 968,1399.17 959,1536.5C 949.742,1735.17 940.576,1933.83 931.5,2132.5C 914.5,2132.5 897.5,2132.5 880.5,2132.5C 837.833,2131.17 795.167,2131.17 752.5,2132.5C 743.167,2132.5 733.833,2132.5 724.5,2132.5C 729.869,1927.11 737.035,1721.77 746,1516.5C 751.345,1386.31 759.679,1256.31 771,1126.5C 774.647,1080.3 781.647,1034.64 792,989.5C 804.626,948.103 820.459,908.103 839.5,869.5C 842.302,872.476 844.969,875.642 847.5,879C 851.056,880.608 854.389,882.441 857.5,884.5C 842.134,946.623 823.967,1007.96 803,1068.5C 798.042,1086.91 794.376,1105.58 792,1124.5C 774.519,1456.47 757.686,1788.47 741.5,2120.5C 741.833,2124.17 742.167,2127.83 742.5,2131.5C 759.5,1797.17 776.667,1462.83 794,1128.5C 796.124,1108.55 799.791,1088.88 805,1069.5C 826.131,1008.98 844.298,947.65 859.5,885.5C 871.225,890.353 883.225,894.52 895.5,898C 937.55,908.58 980.217,912.247 1023.5,909C 1061.21,907.742 1096.54,898.075 1129.5,880C 1135.36,876.641 1140.02,872.141 1143.5,866.5 Z"/></g>
<g><path style="opacity:1" fill="#fd5d5c" d="M 1670.5,877.5 C 1677.85,891.531 1685.18,905.531 1692.5,919.5C 1692.56,920.609 1692.89,921.609 1693.5,922.5C 1679.21,925.99 1664.87,929.323 1650.5,932.5C 1648.93,930.056 1647.43,927.39 1646,924.5C 1644.58,923.54 1643.08,922.707 1641.5,922C 1635.18,920.983 1628.85,920.15 1622.5,919.5C 1622.17,918.833 1621.83,918.167 1621.5,917.5C 1630.64,915.711 1639.98,914.211 1649.5,913C 1652.54,911.969 1655.04,910.135 1657,907.5C 1660.23,900.64 1658.39,895.807 1651.5,893C 1647.97,892.821 1644.64,892.321 1641.5,891.5C 1652.58,889.489 1662.25,884.822 1670.5,877.5 Z"/></g>
<g><path style="opacity:1" fill="#2a194f" d="M 1328.5,891.5 C 1334.93,890.88 1340.93,891.547 1346.5,893.5C 1312.68,893.032 1281.18,901.365 1252,918.5C 1251.5,918 1251,917.5 1250.5,917C 1274.68,902.551 1300.68,894.051 1328.5,891.5 Z"/></g>
<g><path style="opacity:0.984" fill="#412c90" d="M 1750.5,1035.5 C 1725.45,1062.36 1694.45,1073.52 1657.5,1069C 1621.25,1062.65 1593.75,1043.82 1575,1012.5C 1570.67,1003.68 1566.84,994.675 1563.5,985.5C 1571.47,987.427 1579.47,989.094 1587.5,990.5C 1599.01,1029.85 1625.01,1052.68 1665.5,1059C 1709.59,1062.2 1738.75,1043.04 1753,1001.5C 1756.57,987.734 1756.24,974.068 1752,960.5C 1747.5,949.5 1743,938.5 1738.5,927.5C 1736.93,926.369 1735.26,926.202 1733.5,927C 1702.45,934.345 1671.45,941.845 1640.5,949.5C 1640.5,949.167 1640.5,948.833 1640.5,948.5C 1640.83,947.833 1641.17,947.167 1641.5,946.5C 1645.36,943.112 1647.36,938.778 1647.5,933.5C 1648.79,933.737 1649.79,933.404 1650.5,932.5C 1664.87,929.323 1679.21,925.99 1693.5,922.5C 1703.02,920.454 1712.35,918.121 1721.5,915.5C 1731.2,913.325 1740.87,910.992 1750.5,908.5C 1758.66,924.485 1765.16,941.152 1770,958.5C 1775.21,987.338 1768.71,1013 1750.5,1035.5 Z"/></g>
<g><path style="opacity:1" fill="#040209" d="M 1719.5,912.5 C 1720.4,913.29 1721.07,914.29 1721.5,915.5C 1712.35,918.121 1703.02,920.454 1693.5,922.5C 1692.89,921.609 1692.56,920.609 1692.5,919.5C 1701.1,916.099 1710.1,913.766 1719.5,912.5 Z"/></g>
<g><path style="opacity:1" fill="#56346a" d="M 1621.5,917.5 C 1621.83,918.167 1622.17,918.833 1622.5,919.5C 1619.28,919.892 1616.28,919.392 1613.5,918C 1616.15,917.503 1618.81,917.336 1621.5,917.5 Z"/></g>
<g><path style="opacity:1" fill="#402d91" d="M 1589.5,990.5 C 1604.4,992.936 1619.4,994.102 1634.5,994C 1637.09,990.402 1637.09,986.736 1634.5,983C 1620.23,979.466 1605.89,976.133 1591.5,973C 1604.23,969.984 1616.9,966.651 1629.5,963C 1634.82,960.853 1638.15,957.02 1639.5,951.5C 1671.87,944.043 1704.21,936.376 1736.5,928.5C 1742.02,940.211 1746.85,952.211 1751,964.5C 1757.77,1003.8 1743.6,1032.63 1708.5,1051C 1668.42,1064.94 1634.25,1056.11 1606,1024.5C 1598.1,1014.36 1592.6,1003.03 1589.5,990.5 Z"/></g>
<g><path style="opacity:1" fill="#311c52" d="M 1641.5,946.5 C 1641.17,947.167 1640.83,947.833 1640.5,948.5C 1627.5,949.067 1614.5,949.733 1601.5,950.5C 1598.83,950.167 1596.17,949.833 1593.5,949.5C 1609.48,948.138 1625.48,947.138 1641.5,946.5 Z"/></g>
<g><path style="opacity:0.997" fill="#fe5d5c" d="M 1563.5,985.5 C 1566.84,994.675 1570.67,1003.68 1575,1012.5C 1593.75,1043.82 1621.25,1062.65 1657.5,1069C 1694.45,1073.52 1725.45,1062.36 1750.5,1035.5C 1781.23,1142.34 1803.07,1251.01 1816,1361.5C 1840.3,1568.11 1860.63,1775.11 1877,1982.5C 1881.22,2032.14 1885.05,2081.81 1888.5,2131.5C 1862.17,2131.5 1835.83,2131.5 1809.5,2131.5C 1809.17,2131.5 1808.83,2131.5 1808.5,2131.5C 1773.67,2130.5 1738.67,2130.17 1703.5,2130.5C 1700.54,2050.61 1694.71,1970.94 1686,1891.5C 1663.77,1701.11 1636.44,1511.45 1604,1322.5C 1589.54,1237.39 1574.54,1152.39 1559,1067.5C 1559.86,1109.82 1560.69,1152.16 1561.5,1194.5C 1554.1,1506.81 1547.1,1819.14 1540.5,2131.5C 1520.5,2131.5 1500.5,2131.5 1480.5,2131.5C 1434.83,2131.5 1389.17,2131.5 1343.5,2131.5C 1337.5,2131.5 1331.5,2131.5 1325.5,2131.5C 1324.17,2131.5 1322.83,2131.5 1321.5,2131.5C 1316.17,2131.5 1310.83,2131.5 1305.5,2131.5C 1302.83,2131.5 1300.17,2131.5 1297.5,2131.5C 1287.83,2131.5 1278.17,2131.5 1268.5,2131.5C 1267.17,2131.5 1265.83,2131.5 1264.5,2131.5C 1270.87,1895.38 1280.37,1659.38 1293,1423.5C 1296.71,1347.23 1303.38,1271.23 1313,1195.5C 1323.04,1126.33 1339.21,1058.66 1361.5,992.5C 1376.03,988.742 1390.7,985.409 1405.5,982.5C 1406.24,982.369 1406.91,982.536 1407.5,983C 1390.12,1044.22 1376.96,1106.38 1368,1169.5C 1347.58,1317.84 1334.58,1466.84 1329,1616.5C 1321.08,1786.75 1318.25,1957.08 1320.5,2127.5C 1320.77,1972.12 1323.61,1816.79 1329,1661.5C 1333.81,1539.92 1342.15,1418.58 1354,1297.5C 1361.82,1219.23 1373.49,1141.56 1389,1064.5C 1395.05,1036.63 1401.88,1008.97 1409.5,981.5C 1424.73,977.787 1440.07,974.453 1455.5,971.5C 1438.45,1030.92 1425.28,1091.25 1416,1152.5C 1397.85,1275.56 1385.52,1399.23 1379,1523.5C 1368.33,1724.7 1363.83,1926.03 1365.5,2127.5C 1365.91,1953.42 1369.74,1779.42 1377,1605.5C 1382.71,1462.91 1395.04,1320.91 1414,1179.5C 1424.22,1109.22 1438.72,1039.89 1457.5,971.5C 1460.72,970.362 1464.05,969.529 1467.5,969C 1480.86,968.195 1494.2,968.528 1507.5,970C 1526.31,974.658 1544.97,979.825 1563.5,985.5 Z"/></g>
<g><path style="opacity:1" fill="#0a0513" d="M 1587.5,990.5 C 1588.17,990.5 1588.83,990.5 1589.5,990.5C 1592.6,1003.03 1598.1,1014.36 1606,1024.5C 1634.25,1056.11 1668.42,1064.94 1708.5,1051C 1743.6,1032.63 1757.77,1003.8 1751,964.5C 1746.85,952.211 1742.02,940.211 1736.5,928.5C 1704.21,936.376 1671.87,944.043 1639.5,951.5C 1639.83,950.833 1640.17,950.167 1640.5,949.5C 1671.45,941.845 1702.45,934.345 1733.5,927C 1735.26,926.202 1736.93,926.369 1738.5,927.5C 1743,938.5 1747.5,949.5 1752,960.5C 1756.24,974.068 1756.57,987.734 1753,1001.5C 1738.75,1043.04 1709.59,1062.2 1665.5,1059C 1625.01,1052.68 1599.01,1029.85 1587.5,990.5 Z"/></g>
<g><path style="opacity:1" fill="#dcdbe8" d="M 989.5,1110.5 C 988.419,1113.63 987.753,1116.96 987.5,1120.5C 986.351,1120.21 985.684,1119.38 985.5,1118C 986.159,1115.54 986.493,1113.04 986.5,1110.5C 987.49,1106.61 988.49,1102.61 989.5,1098.5C 995.058,1065.48 1000.72,1032.48 1006.5,999.5C 1007.68,999.281 1008.68,999.614 1009.5,1000.5C 1002.2,1037.04 995.531,1073.71 989.5,1110.5 Z"/></g>
<g><path style="opacity:1" fill="#d95150" d="M 1808.5,2131.5 C 1755.5,2131.5 1702.5,2131.5 1649.5,2131.5C 1633.17,2131.5 1616.83,2131.5 1600.5,2131.5C 1587.74,1819 1574.74,1506.67 1561.5,1194.5C 1560.69,1152.16 1559.86,1109.82 1559,1067.5C 1574.54,1152.39 1589.54,1237.39 1604,1322.5C 1636.44,1511.45 1663.77,1701.11 1686,1891.5C 1694.71,1970.94 1700.54,2050.61 1703.5,2130.5C 1738.67,2130.17 1773.67,2130.5 1808.5,2131.5 Z"/></g>
<g><path style="opacity:1" fill="#59568f" d="M 989.5,1098.5 C 988.49,1102.61 987.49,1106.61 986.5,1110.5C 986.737,1102.47 986.403,1094.47 985.5,1086.5C 985.833,1085.5 986.167,1084.5 986.5,1083.5C 987.081,1088.72 988.081,1093.72 989.5,1098.5 Z"/></g>
<g><path style="opacity:1" fill="#534f8b" d="M 857.5,884.5 C 858.492,884.328 859.158,884.662 859.5,885.5C 844.298,947.65 826.131,1008.98 805,1069.5C 799.791,1088.88 796.124,1108.55 794,1128.5C 776.667,1462.83 759.5,1797.17 742.5,2131.5C 742.167,2127.83 741.833,2124.17 741.5,2120.5C 757.686,1788.47 774.519,1456.47 792,1124.5C 794.376,1105.58 798.042,1086.91 803,1068.5C 823.967,1007.96 842.134,946.623 857.5,884.5 Z"/></g>
<g><path style="opacity:1" fill="#534f8b" d="M 989.5,1110.5 C 1006.33,1450.85 1023.33,1791.18 1040.5,2131.5C 1039.83,2131.5 1039.17,2131.5 1038.5,2131.5C 1021.43,1794.5 1004.43,1457.5 987.5,1120.5C 987.753,1116.96 988.419,1113.63 989.5,1110.5 Z"/></g>
<g><path style="opacity:1" fill="#ff9594" d="M 1455.5,971.5 C 1456.17,971.5 1456.83,971.5 1457.5,971.5C 1438.72,1039.89 1424.22,1109.22 1414,1179.5C 1395.04,1320.91 1382.71,1462.91 1377,1605.5C 1369.74,1779.42 1365.91,1953.42 1365.5,2127.5C 1363.83,1926.03 1368.33,1724.7 1379,1523.5C 1385.52,1399.23 1397.85,1275.56 1416,1152.5C 1425.28,1091.25 1438.45,1030.92 1455.5,971.5 Z"/></g>
<g><path style="opacity:1" fill="#ff9594" d="M 1405.5,982.5 C 1406.57,981.566 1407.9,981.232 1409.5,981.5C 1401.88,1008.97 1395.05,1036.63 1389,1064.5C 1373.49,1141.56 1361.82,1219.23 1354,1297.5C 1342.15,1418.58 1333.81,1539.92 1329,1661.5C 1323.61,1816.79 1320.77,1972.12 1320.5,2127.5C 1318.25,1957.08 1321.08,1786.75 1329,1616.5C 1334.58,1466.84 1347.58,1317.84 1368,1169.5C 1376.96,1106.38 1390.12,1044.22 1407.5,983C 1406.91,982.536 1406.24,982.369 1405.5,982.5 Z"/></g>
<g><path style="opacity:0.626" fill="#08062b" d="M 1906.5,2201.5 C 1904.62,2201.77 1903.29,2201.1 1902.5,2199.5C 1924.61,2189.57 1943.44,2175.23 1959,2156.5C 1967.75,2144.83 1965.92,2135.33 1953.5,2128C 1946.14,2126.79 1939.64,2128.62 1934,2133.5C 1929.73,2141.43 1925.06,2149.1 1920,2156.5C 1910.3,2169.23 1900.14,2181.57 1889.5,2193.5C 1887.97,2193.57 1886.97,2192.91 1886.5,2191.5C 1900.98,2175.86 1914.14,2159.19 1926,2141.5C 1926.67,2140.83 1926.67,2140.17 1926,2139.5C 1910.23,2155.1 1896.4,2172.1 1884.5,2190.5C 1882.97,2190.57 1881.97,2189.91 1881.5,2188.5C 1890.83,2175.21 1900.66,2162.21 1911,2149.5C 1917.38,2142.62 1924.22,2136.28 1931.5,2130.5C 1936.44,2120.61 1933.61,2114.94 1923,2113.5C 1914.69,2114.66 1908.02,2118.66 1903,2125.5C 1892.89,2141.32 1885.39,2158.32 1880.5,2176.5C 1879.39,2176.56 1878.39,2176.89 1877.5,2177.5C 1882.06,2157.73 1889.89,2139.39 1901,2122.5C 1907.67,2113.58 1916.5,2109.75 1927.5,2111C 1935.39,2113.6 1938.56,2119.1 1937,2127.5C 1953.12,2120.3 1963.29,2125.14 1967.5,2142C 1967.16,2148.52 1964.99,2154.35 1961,2159.5C 1945.86,2177.48 1927.69,2191.48 1906.5,2201.5 Z"/></g>
<g><path style="opacity:0.647" fill="#08062b" d="M 1264.5,2131.5 C 1265.83,2131.5 1267.17,2131.5 1268.5,2131.5C 1260,2148.33 1253.67,2166 1249.5,2184.5C 1248.17,2184.83 1246.83,2185.17 1245.5,2185.5C 1250.24,2166.93 1256.58,2148.93 1264.5,2131.5 Z"/></g>
<g><path style="opacity:0.625" fill="#08062b" d="M 1297.5,2131.5 C 1300.17,2131.5 1302.83,2131.5 1305.5,2131.5C 1303.85,2132.97 1302.02,2134.3 1300,2135.5C 1288.48,2159.91 1273.98,2182.24 1256.5,2202.5C 1254.97,2202.57 1253.97,2201.91 1253.5,2200.5C 1268.45,2182.88 1281.45,2163.88 1292.5,2143.5C 1276.86,2160.82 1263.53,2179.82 1252.5,2200.5C 1251.17,2199.83 1250.17,2198.83 1249.5,2197.5C 1258.39,2183.39 1267.56,2169.39 1277,2155.5C 1283.69,2147.31 1290.52,2139.31 1297.5,2131.5 Z M 1292.5,2143.5 C 1281.45,2163.88 1268.45,2182.88 1253.5,2200.5C 1253.17,2200.5 1252.83,2200.5 1252.5,2200.5C 1263.53,2179.82 1276.86,2160.82 1292.5,2143.5 Z"/></g>
<g><path style="opacity:0.621" fill="#08062b" d="M 1321.5,2131.5 C 1322.83,2131.5 1324.17,2131.5 1325.5,2131.5C 1331.98,2139 1333.15,2147.34 1329,2156.5C 1322.36,2169.91 1313.19,2181.41 1301.5,2191C 1292.48,2198.84 1282.81,2205.67 1272.5,2211.5C 1271.21,2211.74 1270.21,2211.4 1269.5,2210.5C 1289.49,2198.55 1306.65,2183.21 1321,2164.5C 1324.77,2158.68 1327.27,2152.35 1328.5,2145.5C 1327.22,2140.27 1324.88,2135.6 1321.5,2131.5 Z"/></g>
<g><path style="opacity:0.991" fill="#f9a4a6" d="M 1343.5,2131.5 C 1389.17,2131.5 1434.83,2131.5 1480.5,2131.5C 1480.5,2142.5 1480.5,2153.5 1480.5,2164.5C 1435.66,2165.17 1390.66,2165.83 1345.5,2166.5C 1345.14,2167.52 1344.48,2168.19 1343.5,2168.5C 1343.5,2156.17 1343.5,2143.83 1343.5,2131.5 Z"/></g>
<g><path style="opacity:0.994" fill="#fca6a7" d="M 1649.5,2131.5 C 1702.5,2131.5 1755.5,2131.5 1808.5,2131.5C 1808.83,2131.5 1809.17,2131.5 1809.5,2131.5C 1809.25,2137.56 1809.59,2143.56 1810.5,2149.5C 1757.99,2163.75 1705.33,2177.42 1652.5,2190.5C 1651.77,2170.82 1650.77,2151.15 1649.5,2131.5 Z"/></g>
<g><path style="opacity:0.997" fill="#fca6a7" d="M 880.5,2132.5 C 880.5,2140.83 880.5,2149.17 880.5,2157.5C 838.167,2157.5 795.833,2157.5 753.5,2157.5C 753.737,2158.79 753.404,2159.79 752.5,2160.5C 752.5,2151.17 752.5,2141.83 752.5,2132.5C 795.167,2131.17 837.833,2131.17 880.5,2132.5 Z"/></g>
<g><path style="opacity:0.994" fill="#fca6a8" d="M 1038.5,2131.5 C 1039.17,2131.5 1039.83,2131.5 1040.5,2131.5C 1088,2131.17 1135.34,2131.5 1182.5,2132.5C 1182.23,2140.22 1182.57,2147.89 1183.5,2155.5C 1134.04,2171.88 1084.37,2187.88 1034.5,2203.5C 1033.92,2179.76 1032.92,2156.09 1031.5,2132.5C 1033.61,2131.53 1035.94,2131.2 1038.5,2131.5 Z"/></g>
<g><path style="opacity:0.99" fill="#251a5e" d="M 1869.5,2180.5 C 1852.89,2188.47 1836.23,2196.47 1819.5,2204.5C 1820.36,2205.58 1821.36,2205.75 1822.5,2205C 1839.07,2197.21 1855.74,2189.71 1872.5,2182.5C 1874.65,2185.33 1875.65,2185 1875.5,2181.5C 1876.6,2180.4 1877.94,2179.73 1879.5,2179.5C 1879.28,2181.34 1878.94,2183.18 1878.5,2185C 1878.72,2186.91 1879.72,2188.07 1881.5,2188.5C 1881.97,2189.91 1882.97,2190.57 1884.5,2190.5C 1884.84,2191.34 1885.51,2191.67 1886.5,2191.5C 1886.97,2192.91 1887.97,2193.57 1889.5,2193.5C 1886.9,2195.81 1883.9,2197.64 1880.5,2199C 1868.58,2204.46 1856.58,2209.63 1844.5,2214.5C 1844.35,2215.55 1844.52,2216.55 1845,2217.5C 1860.99,2209.75 1877.16,2202.42 1893.5,2195.5C 1896.09,2197.59 1899.09,2198.93 1902.5,2199.5C 1903.29,2201.1 1904.62,2201.77 1906.5,2201.5C 1909.1,2202.8 1911.77,2204.13 1914.5,2205.5C 1899.23,2212.8 1883.89,2220.14 1868.5,2227.5C 1869,2227.83 1869.5,2228.17 1870,2228.5C 1886.02,2221.07 1902.19,2214.07 1918.5,2207.5C 1955.18,2219.71 1985.68,2240.71 2010,2270.5C 2019.31,2283.45 2026.81,2297.45 2032.5,2312.5C 2024.85,2313.33 2017.19,2313.83 2009.5,2314C 1932.49,2314.83 1855.49,2315.5 1778.5,2316C 1767,2307.17 1755.5,2298.33 1744,2289.5C 1743.2,2297.19 1742.36,2304.85 1741.5,2312.5C 1706.53,2313.79 1671.53,2314.46 1636.5,2314.5C 1639.99,2273.47 1643.65,2232.47 1647.5,2191.5C 1649.22,2191.37 1650.88,2191.04 1652.5,2190.5C 1705.33,2177.42 1757.99,2163.75 1810.5,2149.5C 1819.15,2147.17 1827.82,2144.84 1836.5,2142.5C 1845.34,2157.01 1856.34,2169.68 1869.5,2180.5 Z M 1875.5,2181.5 C 1875.65,2185 1874.65,2185.33 1872.5,2182.5C 1873.61,2182.44 1874.61,2182.11 1875.5,2181.5 Z"/></g>
<g><path style="opacity:0.992" fill="#4a54f2" d="M 1238.5,2188.5 C 1224.94,2197.62 1210.61,2205.79 1195.5,2213C 1193.94,2213.94 1192.61,2215.11 1191.5,2216.5C 1191.83,2216.83 1192.17,2217.17 1192.5,2217.5C 1208.73,2208.55 1225.06,2199.89 1241.5,2191.5C 1241.84,2192.34 1242.51,2192.67 1243.5,2192.5C 1243.5,2194.5 1244.5,2195.5 1246.5,2195.5C 1247.29,2196.4 1248.29,2197.07 1249.5,2197.5C 1250.17,2198.83 1251.17,2199.83 1252.5,2200.5C 1252.83,2200.5 1253.17,2200.5 1253.5,2200.5C 1253.97,2201.91 1254.97,2202.57 1256.5,2202.5C 1256.5,2203.17 1256.83,2203.5 1257.5,2203.5C 1243.72,2211.56 1229.72,2219.39 1215.5,2227C 1214.29,2227.89 1214.29,2228.73 1215.5,2229.5C 1230.61,2220.94 1245.95,2212.94 1261.5,2205.5C 1264.13,2207.15 1266.8,2208.82 1269.5,2210.5C 1270.21,2211.4 1271.21,2211.74 1272.5,2211.5C 1274.85,2213.34 1277.52,2214.67 1280.5,2215.5C 1266.21,2224.32 1251.55,2232.65 1236.5,2240.5C 1236.81,2241.31 1237.31,2241.97 1238,2242.5C 1250.09,2235.54 1262.25,2228.71 1274.5,2222C 1277.97,2219.93 1281.64,2218.43 1285.5,2217.5C 1298.63,2224.56 1311.63,2231.9 1324.5,2239.5C 1324.92,2240.26 1325.26,2241.1 1325.5,2242C 1322.97,2255.03 1321.47,2268.2 1321,2281.5C 1320.5,2299.5 1320.33,2317.5 1320.5,2335.5C 1263.82,2336.65 1207.16,2337.82 1150.5,2339C 1140.09,2329.38 1129.59,2319.88 1119,2310.5C 1118.02,2319.16 1117.18,2327.83 1116.5,2336.5C 1083.79,2337.42 1051.12,2338.75 1018.5,2340.5C 1018.17,2339.17 1017.83,2337.83 1017.5,2336.5C 1021.42,2293.51 1025.26,2250.51 1029,2207.5C 1029.66,2204.58 1031.5,2203.25 1034.5,2203.5C 1084.37,2187.88 1134.04,2171.88 1183.5,2155.5C 1190.57,2153.64 1197.57,2151.48 1204.5,2149C 1206.26,2148.2 1207.93,2148.37 1209.5,2149.5C 1216.53,2164.52 1226.19,2177.52 1238.5,2188.5 Z"/></g>
<g><path style="opacity:0.988" fill="#4b54f2" d="M 880.5,2157.5 C 892.881,2193.57 900.381,2230.91 903,2269.5C 904.666,2294.83 906.166,2320.16 907.5,2345.5C 848.167,2345.5 788.833,2345.5 729.5,2345.5C 724.859,2282.23 732.526,2220.56 752.5,2160.5C 753.404,2159.79 753.737,2158.79 753.5,2157.5C 795.833,2157.5 838.167,2157.5 880.5,2157.5 Z"/></g>
<g><path style="opacity:0.989" fill="#251a5e" d="M 1480.5,2164.5 C 1492.67,2195.85 1500.5,2228.52 1504,2262.5C 1505.91,2286.83 1507.74,2311.17 1509.5,2335.5C 1446.5,2335.5 1383.5,2335.5 1320.5,2335.5C 1320.33,2317.5 1320.5,2299.5 1321,2281.5C 1321.47,2268.2 1322.97,2255.03 1325.5,2242C 1325.26,2241.1 1324.92,2240.26 1324.5,2239.5C 1329.09,2215.47 1335.43,2191.8 1343.5,2168.5C 1344.48,2168.19 1345.14,2167.52 1345.5,2166.5C 1390.66,2165.83 1435.66,2165.17 1480.5,2164.5 Z"/></g>
<g><path style="opacity:0.606" fill="#0a0a2e" d="M 1248.5,2187.5 C 1247.83,2190.17 1247.17,2192.83 1246.5,2195.5C 1244.5,2195.5 1243.5,2194.5 1243.5,2192.5C 1243.83,2191.83 1244.17,2191.17 1244.5,2190.5C 1245.26,2188.74 1246.6,2187.74 1248.5,2187.5 Z"/></g>
<g><path style="opacity:1" fill="#e1e2fd" d="M 763.5,2189.5 C 797.173,2189.17 830.84,2189.5 864.5,2190.5C 847.667,2190.83 830.833,2191.17 814,2191.5C 796.82,2191.5 779.986,2190.83 763.5,2189.5 Z"/></g>
<g><path style="opacity:1" fill="#b9b5cc" d="M 1355.5,2193.5 C 1391.5,2193.5 1427.5,2193.5 1463.5,2193.5C 1463.5,2194.5 1463.5,2195.5 1463.5,2196.5C 1427.83,2196.67 1392.17,2196.5 1356.5,2196C 1355.75,2195.33 1355.41,2194.5 1355.5,2193.5 Z"/></g>
<g><path style="opacity:1" fill="#ebeaf0" d="M 1893.5,2195.5 C 1877.16,2202.42 1860.99,2209.75 1845,2217.5C 1844.52,2216.55 1844.35,2215.55 1844.5,2214.5C 1856.58,2209.63 1868.58,2204.46 1880.5,2199C 1883.9,2197.64 1886.9,2195.81 1889.5,2193.5C 1894.82,2191.33 1900.15,2189.5 1905.5,2188C 1906.71,2188.89 1906.71,2189.73 1905.5,2190.5C 1901.48,2192.18 1897.48,2193.85 1893.5,2195.5 Z"/></g>
<g><path style="opacity:1" fill="#ebecfc" d="M 1249.5,2184.5 C 1249.74,2185.79 1249.4,2186.79 1248.5,2187.5C 1246.6,2187.74 1245.26,2188.74 1244.5,2190.5C 1243.39,2190.56 1242.39,2190.89 1241.5,2191.5C 1225.06,2199.89 1208.73,2208.55 1192.5,2217.5C 1192.17,2217.17 1191.83,2216.83 1191.5,2216.5C 1192.61,2215.11 1193.94,2213.94 1195.5,2213C 1210.61,2205.79 1224.94,2197.62 1238.5,2188.5C 1240.95,2187.77 1243.29,2186.77 1245.5,2185.5C 1246.83,2185.17 1248.17,2184.83 1249.5,2184.5 Z"/></g>
<g><path style="opacity:1" fill="#e7e6ed" d="M 1880.5,2176.5 C 1881.72,2177.78 1881.38,2178.78 1879.5,2179.5C 1877.94,2179.73 1876.6,2180.4 1875.5,2181.5C 1874.61,2182.11 1873.61,2182.44 1872.5,2182.5C 1855.74,2189.71 1839.07,2197.21 1822.5,2205C 1821.36,2205.75 1820.36,2205.58 1819.5,2204.5C 1836.23,2196.47 1852.89,2188.47 1869.5,2180.5C 1872.01,2179.11 1874.67,2178.11 1877.5,2177.5C 1878.39,2176.89 1879.39,2176.56 1880.5,2176.5 Z"/></g>
<g><path style="opacity:1" fill="#eff0fe" d="M 1261.5,2205.5 C 1245.95,2212.94 1230.61,2220.94 1215.5,2229.5C 1214.29,2228.73 1214.29,2227.89 1215.5,2227C 1229.72,2219.39 1243.72,2211.56 1257.5,2203.5C 1262.3,2200.68 1267.3,2198.35 1272.5,2196.5C 1272.67,2197.82 1272.34,2198.99 1271.5,2200C 1267.94,2201.61 1264.61,2203.44 1261.5,2205.5 Z"/></g>
<g><path style="opacity:1" fill="#fefefe" d="M 763.5,2221.5 C 797.173,2221.17 830.84,2221.5 864.5,2222.5C 847.667,2222.83 830.833,2223.17 814,2223.5C 796.82,2223.5 779.986,2222.83 763.5,2221.5 Z"/></g>
<g><path style="opacity:1" fill="#ebeaf0" d="M 1918.5,2207.5 C 1902.19,2214.07 1886.02,2221.07 1870,2228.5C 1869.5,2228.17 1869,2227.83 1868.5,2227.5C 1883.89,2220.14 1899.23,2212.8 1914.5,2205.5C 1919.28,2203.07 1924.11,2200.74 1929,2198.5C 1930.62,2199.54 1930.78,2200.7 1929.5,2202C 1925.74,2203.88 1922.07,2205.71 1918.5,2207.5 Z"/></g>
<g><path style="opacity:1" fill="#e2e1e9" d="M 1355.5,2222.5 C 1391.51,2222.17 1427.51,2222.5 1463.5,2223.5C 1445.5,2223.83 1427.5,2224.17 1409.5,2224.5C 1391.15,2224.5 1373.15,2223.83 1355.5,2222.5 Z"/></g>
<g><path style="opacity:1" fill="#ededfe" d="M 1285.5,2217.5 C 1281.64,2218.43 1277.97,2219.93 1274.5,2222C 1262.25,2228.71 1250.09,2235.54 1238,2242.5C 1237.31,2241.97 1236.81,2241.31 1236.5,2240.5C 1251.55,2232.65 1266.21,2224.32 1280.5,2215.5C 1285.11,2213.19 1289.78,2210.86 1294.5,2208.5C 1295.58,2209.36 1295.75,2210.36 1295,2211.5C 1291.66,2213.36 1288.49,2215.36 1285.5,2217.5 Z"/></g>
<g><path style="opacity:1" fill="#afaac4" d="M 1355.5,2247.5 C 1391.5,2247.5 1427.5,2247.5 1463.5,2247.5C 1463.5,2248.5 1463.5,2249.5 1463.5,2250.5C 1427.5,2250.5 1391.5,2250.5 1355.5,2250.5C 1355.5,2249.5 1355.5,2248.5 1355.5,2247.5 Z"/></g>
<g><path style="opacity:1" fill="#eff0fe" d="M 763.5,2249.5 C 797.173,2249.17 830.84,2249.5 864.5,2250.5C 847.667,2250.83 830.833,2251.17 814,2251.5C 796.82,2251.5 779.986,2250.83 763.5,2249.5 Z"/></g>
</svg>
