<?xml version="1.0" encoding="UTF-8"?>
<!DOCTYPE svg PUBLIC "-//W3C//DTD SVG 1.1//EN" "http://www.w3.org/Graphics/SVG/1.1/DTD/svg11.dtd">
<svg xmlns="http://www.w3.org/2000/svg" version="1.1" width="369px" height="114px" style="shape-rendering:geometricPrecision; text-rendering:geometricPrecision; image-rendering:optimizeQuality; fill-rule:evenodd; clip-rule:evenodd" xmlns:xlink="http://www.w3.org/1999/xlink">
<g><path style="opacity:1" fill="#142336" d="M -0.5,-0.5 C 122.5,-0.5 245.5,-0.5 368.5,-0.5C 368.5,37.5 368.5,75.5 368.5,113.5C 245.5,113.5 122.5,113.5 -0.5,113.5C -0.5,75.5 -0.5,37.5 -0.5,-0.5 Z"/></g>
<g><path style="opacity:1" fill="#67cfca" d="M 139.5,29.5 C 147.167,29.5 154.833,29.5 162.5,29.5C 162.5,30.8333 162.5,32.1667 162.5,33.5C 156.5,33.5 150.5,33.5 144.5,33.5C 144.5,37.5 144.5,41.5 144.5,45.5C 149.833,45.5 155.167,45.5 160.5,45.5C 160.5,46.8333 160.5,48.1667 160.5,49.5C 155.167,49.5 149.833,49.5 144.5,49.5C 144.5,53.8333 144.5,58.1667 144.5,62.5C 142.833,62.5 141.167,62.5 139.5,62.5C 139.5,51.5 139.5,40.5 139.5,29.5 Z"/></g>
<g><path style="opacity:1" fill="#68d2cc" d="M 247.5,29.5 C 248.833,29.5 250.167,29.5 251.5,29.5C 251.5,40.5 251.5,51.5 251.5,62.5C 250.167,62.5 248.833,62.5 247.5,62.5C 247.5,51.5 247.5,40.5 247.5,29.5 Z"/></g>
<g><path style="opacity:1" fill="#65cbc7" d="M 268.5,29.5 C 276.167,29.5 283.833,29.5 291.5,29.5C 291.5,30.8333 291.5,32.1667 291.5,33.5C 285.5,33.5 279.5,33.5 273.5,33.5C 273.5,37.5 273.5,41.5 273.5,45.5C 278.833,45.5 284.167,45.5 289.5,45.5C 289.5,46.8333 289.5,48.1667 289.5,49.5C 284.167,49.5 278.833,49.5 273.5,49.5C 273.5,53.8333 273.5,58.1667 273.5,62.5C 271.833,62.5 270.167,62.5 268.5,62.5C 268.5,51.5 268.5,40.5 268.5,29.5 Z"/></g>
<g><path style="opacity:1" fill="#68d0cb" d="M 304.5,29.5 C 312.167,29.5 319.833,29.5 327.5,29.5C 327.5,30.8333 327.5,32.1667 327.5,33.5C 321.5,33.5 315.5,33.5 309.5,33.5C 309.5,36.8333 309.5,40.1667 309.5,43.5C 314.833,43.5 320.167,43.5 325.5,43.5C 325.5,44.8333 325.5,46.1667 325.5,47.5C 320.167,47.5 314.833,47.5 309.5,47.5C 309.5,51.1667 309.5,54.8333 309.5,58.5C 315.5,58.5 321.5,58.5 327.5,58.5C 327.5,59.8333 327.5,61.1667 327.5,62.5C 319.833,62.5 312.167,62.5 304.5,62.5C 304.5,51.5 304.5,40.5 304.5,29.5 Z"/></g>
<g><path style="opacity:1" fill="#68d0cb" d="M 188.5,29.5 C 190.199,29.3398 191.866,29.5065 193.5,30C 188.257,36.4878 183.257,43.1544 178.5,50C 182.486,50.4988 186.486,50.6655 190.5,50.5C 190.5,48.1667 190.5,45.8333 190.5,43.5C 191.833,43.5 193.167,43.5 194.5,43.5C 194.5,45.8333 194.5,48.1667 194.5,50.5C 196.5,50.5 198.5,50.5 200.5,50.5C 200.5,51.8333 200.5,53.1667 200.5,54.5C 198.5,54.5 196.5,54.5 194.5,54.5C 194.5,57.1667 194.5,59.8333 194.5,62.5C 193.167,62.5 191.833,62.5 190.5,62.5C 190.5,59.8333 190.5,57.1667 190.5,54.5C 184.5,54.5 178.5,54.5 172.5,54.5C 172.372,52.3453 172.872,50.3453 174,48.5C 179.049,42.2903 183.883,35.9569 188.5,29.5 Z"/></g>
<g><path style="opacity:1" fill="#68d1cc" d="M 213.5,29.5 C 214.833,29.5 216.167,29.5 217.5,29.5C 217.5,39.1667 217.5,48.8333 217.5,58.5C 223.5,58.5 229.5,58.5 235.5,58.5C 235.5,59.8333 235.5,61.1667 235.5,62.5C 228.167,62.5 220.833,62.5 213.5,62.5C 213.5,51.5 213.5,40.5 213.5,29.5 Z"/></g>
<g><path style="opacity:1" fill="#8e959f" d="M 305.5,81.5 C 307.857,81.3367 310.19,81.5034 312.5,82C 311.584,82.3742 310.75,82.8742 310,83.5C 309.172,92.8099 308.672,92.8099 308.5,83.5C 306.821,83.7148 305.821,83.0481 305.5,81.5 Z"/></g>
<g><path style="opacity:1" fill="#485462" d="M 248.5,90.5 C 248.664,87.8127 248.497,85.146 248,82.5C 247.798,84.2556 247.298,85.9223 246.5,87.5C 245.893,87.3764 245.56,87.0431 245.5,86.5C 246.451,85.0813 246.784,83.4147 246.5,81.5C 247.5,81.5 248.5,81.5 249.5,81.5C 249.81,84.7131 249.477,87.7131 248.5,90.5 Z"/></g>
<g><path style="opacity:1" fill="#7b848e" d="M 252.5,81.5 C 253.765,82.5145 254.431,84.0145 254.5,86C 254.167,87.5 253.833,89 253.5,90.5C 252.516,87.5719 252.183,84.5719 252.5,81.5 Z"/></g>
<g><path style="opacity:1" fill="#717b86" d="M 291.5,81.5 C 298.136,82.0218 298.136,82.8551 291.5,84C 299.685,87.9304 299.352,90.2637 290.5,91C 290.043,90.586 289.709,90.086 289.5,89.5C 291.424,89.433 293.424,89.0997 295.5,88.5C 293.433,87.8659 291.6,86.8659 290,85.5C 289.516,83.8067 290.016,82.4733 291.5,81.5 Z"/></g>
<g><path style="opacity:1" fill="#747c88" d="M 300.5,81.5 C 301.765,82.5145 302.431,84.0145 302.5,86C 302.167,87.5 301.833,89 301.5,90.5C 300.516,87.5719 300.183,84.5719 300.5,81.5 Z"/></g>
<g><path style="opacity:1" fill="#6f7884" d="M 318.5,81.5 C 319.496,81.4142 320.329,81.7476 321,82.5C 321.977,85.1024 323.144,87.6024 324.5,90C 323.085,89.7445 321.585,89.2445 320,88.5C 318.635,88.8443 317.468,89.5109 316.5,90.5C 316.167,90 315.833,89.5 315.5,89C 316.8,86.5627 317.8,84.0627 318.5,81.5 Z"/></g>
<g><path style="opacity:1" fill="#78808c" d="M 183.5,81.5 C 186.602,81.154 189.435,81.8207 192,83.5C 192.663,89.6671 189.83,92.3338 183.5,91.5C 183.5,88.1667 183.5,84.8333 183.5,81.5 Z"/></g>
<g><path style="opacity:1" fill="#1b293b" d="M 185.5,83.5 C 190.159,83.0146 191.492,84.848 189.5,89C 188.207,89.49 186.873,89.6567 185.5,89.5C 185.5,87.5 185.5,85.5 185.5,83.5 Z"/></g>
<g><path style="opacity:1" fill="#7b838e" d="M 279.5,81.5 C 282.365,81.0548 284.865,81.7215 287,83.5C 286.502,86.0226 286.002,88.3559 285.5,90.5C 283.833,87.8333 282.167,87.8333 280.5,90.5C 279.516,87.5719 279.183,84.5719 279.5,81.5 Z"/></g>
<g><path style="opacity:1" fill="#142336" d="M 281.5,83.5 C 282.5,83.5 283.5,83.5 284.5,83.5C 284.5,84.5 284.5,85.5 284.5,86.5C 283.5,86.5 282.5,86.5 281.5,86.5C 281.5,85.5 281.5,84.5 281.5,83.5 Z"/></g>
<g><path style="opacity:1" fill="#6b7480" d="M 195.5,81.5 C 196.777,82.6936 197.444,84.3603 197.5,86.5C 197.167,88.1667 196.833,89.8333 196.5,91.5C 195.513,88.2317 195.18,84.8984 195.5,81.5 Z"/></g>
<g><path style="opacity:1" fill="#838c96" d="M 269.5,81.5 C 271.527,81.3379 273.527,81.5045 275.5,82C 269.676,82.9153 269.343,84.2487 274.5,86C 272.714,86.1962 271.381,87.0295 270.5,88.5C 278.299,90.37 277.965,91.37 269.5,91.5C 269.5,88.1667 269.5,84.8333 269.5,81.5 Z"/></g>
<g><path style="opacity:1" fill="#8c939c" d="M 135.5,81.5 C 136.239,81.369 136.906,81.5357 137.5,82C 138.376,83.586 139.376,85.086 140.5,86.5C 141.99,84.8744 143.49,83.2077 145,81.5C 145.667,84.5 145.667,87.5 145,90.5C 144.667,88.5 144.333,86.5 144,84.5C 142.361,90.3628 140.361,90.6962 138,85.5C 137.798,87.2556 137.298,88.9223 136.5,90.5C 135.516,87.5719 135.183,84.5719 135.5,81.5 Z"/></g>
<g><path style="opacity:1" fill="#808892" d="M 161.5,81.5 C 164.365,81.0548 166.865,81.7215 169,83.5C 168.681,85.7429 168.848,87.9095 169.5,90C 167.893,90.1151 166.393,89.6151 165,88.5C 164.05,89.0223 163.216,89.689 162.5,90.5C 161.516,87.5719 161.183,84.5719 161.5,81.5 Z"/></g>
<g><path style="opacity:1" fill="#1b293c" d="M 163.5,83.5 C 164.833,83.5 166.167,83.5 167.5,83.5C 167.5,84.5 167.5,85.5 167.5,86.5C 166.167,86.5 164.833,86.5 163.5,86.5C 163.5,85.5 163.5,84.5 163.5,83.5 Z"/></g>
<g><path style="opacity:1" fill="#717a85" d="M 175.5,81.5 C 177.411,81.5743 178.578,82.5743 179,84.5C 181.664,89.7032 180.664,91.0365 176,88.5C 174.674,88.7549 173.674,89.4216 173,90.5C 173.209,87.3896 174.042,84.3896 175.5,81.5 Z"/></g>
<g><path style="opacity:1" fill="#717a85" d="M 203.5,81.5 C 204.496,81.4142 205.329,81.7476 206,82.5C 207.312,84.9552 208.478,87.4552 209.5,90C 207.822,89.8877 206.155,89.3877 204.5,88.5C 203.328,88.9186 202.328,89.5853 201.5,90.5C 201.167,90.1667 200.833,89.8333 200.5,89.5C 201.513,86.8122 202.513,84.1456 203.5,81.5 Z"/></g>
<g><path style="opacity:1" fill="#78808b" d="M 245.5,86.5 C 245.56,87.0431 245.893,87.3764 246.5,87.5C 247.298,85.9223 247.798,84.2556 248,82.5C 248.497,85.146 248.664,87.8127 248.5,90.5C 245.931,89.6044 243.931,87.9377 242.5,85.5C 241.833,87.5 241.167,89.5 240.5,91.5C 239.513,88.2317 239.18,84.8984 239.5,81.5C 242.107,82.3163 244.107,83.9829 245.5,86.5 Z"/></g>
<g><path style="opacity:1" fill="#747d88" d="M 257.5,81.5 C 259.309,83.0991 260.642,85.0991 261.5,87.5C 262.427,85.8872 263.261,84.2205 264,82.5C 264.893,81.2888 265.726,81.2888 266.5,82.5C 262.424,93.3031 259.424,92.9698 257.5,81.5 Z"/></g>
<g><path style="opacity:1" fill="#868e98" d="M 327.5,81.5 C 329.792,81.2436 331.959,81.5769 334,82.5C 334.107,85.131 334.273,87.631 334.5,90C 333.17,89.9228 331.836,89.4228 330.5,88.5C 329.353,88.8178 328.519,89.4844 328,90.5C 327.502,87.5184 327.335,84.5184 327.5,81.5 Z"/></g>
<g><path style="opacity:1" fill="#142336" d="M 329.5,83.5 C 330.5,83.5 331.5,83.5 332.5,83.5C 332.5,84.5 332.5,85.5 332.5,86.5C 331.5,86.5 330.5,86.5 329.5,86.5C 329.5,85.5 329.5,84.5 329.5,83.5 Z"/></g>
<g><path style="opacity:1" fill="#808892" d="M 151.5,81.5 C 159.045,82.0622 160.378,85.2289 155.5,91C 150.008,91.4859 148.175,88.9859 150,83.5C 150.717,82.9558 151.217,82.2891 151.5,81.5 Z"/></g>
<g><path style="opacity:1" fill="#1b2a3c" d="M 151.5,83.5 C 156.159,83.0146 157.492,84.848 155.5,89C 150.728,89.8104 149.395,87.9771 151.5,83.5 Z"/></g>
<g><path style="opacity:1" fill="#737c87" d="M 212.5,81.5 C 218.373,81.5981 218.706,82.5981 213.5,84.5C 215.567,85.1341 217.4,86.1341 219,87.5C 219.507,88.9961 219.007,90.1627 217.5,91C 215.559,91.7429 213.726,91.5762 212,90.5C 211.312,89.6683 211.479,89.0016 212.5,88.5C 214.198,89.6808 215.865,89.6808 217.5,88.5C 212.89,87.9313 211.224,85.598 212.5,81.5 Z"/></g>
<g><path style="opacity:1" fill="#78818c" d="M 227.5,81.5 C 229.197,83.3052 230.03,85.6385 230,88.5C 231.333,89.8333 232.667,89.8333 234,88.5C 234.186,86.0995 234.686,83.7662 235.5,81.5C 236.9,84.8622 236.567,88.0289 234.5,91C 232.559,91.7429 230.726,91.5762 229,90.5C 227.711,87.6492 227.211,84.6492 227.5,81.5 Z"/></g>
<g><path style="opacity:1" fill="#7a828d" d="M 346.5,81.5 C 349.577,83.6534 351.077,86.6534 351,90.5C 348.667,87.8333 346.333,87.8333 344,90.5C 344.042,87.3359 344.876,84.3359 346.5,81.5 Z"/></g>
<g><path style="opacity:1" fill="#7a828d" d="M 355.5,81.5 C 362.576,81.8565 362.909,82.8565 356.5,84.5C 361.048,84.8575 362.382,87.0242 360.5,91C 358.559,91.7429 356.726,91.5762 355,90.5C 354.333,89.8333 354.333,89.1667 355,88.5C 356.494,89.7472 357.994,89.7472 359.5,88.5C 355.432,87.4831 354.099,85.1497 355.5,81.5 Z"/></g>
<g><path style="opacity:1" fill="#44878b" d="M 5.5,1.5 C 41.9962,0.501546 78.6629,0.168213 115.5,0.5C 115.5,37.8333 115.5,75.1667 115.5,112.5C 78.5,112.5 41.5,112.5 4.5,112.5C 4.1682,75.3296 4.50153,38.3296 5.5,1.5 Z"/></g>
<g><path style="opacity:1" fill="#67cfcb" d="M 5.5,1.5 C 41.8333,1.5 78.1667,1.5 114.5,1.5C 114.5,38.1667 114.5,74.8333 114.5,111.5C 78.1667,111.5 41.8333,111.5 5.5,111.5C 5.5,74.8333 5.5,38.1667 5.5,1.5 Z"/></g>
<g><path style="opacity:1" fill="#142336" d="M 112.5,4.5 C 112.5,39.1667 112.5,73.8333 112.5,108.5C 77.8333,108.5 43.1667,108.5 8.5,108.5C 8.5,73.8333 8.5,39.1667 8.5,4.5C 43.1667,4.5 77.8333,4.5 112.5,4.5 Z"/></g>
<g><path style="opacity:1" fill="#fdfdfd" d="M 32.5,46.5 C 39.8333,46.5 47.1667,46.5 54.5,46.5C 54.5,62.8333 54.5,79.1667 54.5,95.5C 47.1667,95.5 39.8333,95.5 32.5,95.5C 32.5,79.1667 32.5,62.8333 32.5,46.5 Z"/></g>
<g><path style="opacity:1" fill="#bdc1c6" d="M 87.5,17.5 C 88.4978,42.9946 88.8311,68.6612 88.5,94.5C 80.9809,94.825 73.6476,94.4916 66.5,93.5C 73.5,93.5 80.5,93.5 87.5,93.5C 87.5,68.1667 87.5,42.8333 87.5,17.5 Z"/></g>
<g><path style="opacity:1" fill="#fefefe" d="M 87.5,17.5 C 87.5,42.8333 87.5,68.1667 87.5,93.5C 80.5,93.5 73.5,93.5 66.5,93.5C 66.5,68.1667 66.5,42.8333 66.5,17.5C 73.5,17.5 80.5,17.5 87.5,17.5 Z"/></g>
<g><path style="opacity:1" fill="#386e75" d="M 112.5,4.5 C 77.8333,4.5 43.1667,4.5 8.5,4.5C 8.5,39.1667 8.5,73.8333 8.5,108.5C 43.1667,108.5 77.8333,108.5 112.5,108.5C 77.6706,109.498 42.6706,109.832 7.5,109.5C 7.5,74.1667 7.5,38.8333 7.5,3.5C 42.6706,3.16829 77.6706,3.50162 112.5,4.5 Z"/></g>
</svg>
