<?xml version="1.0" encoding="UTF-8" standalone="no"?>
<!DOCTYPE svg PUBLIC "-//W3C//DTD SVG 1.1//EN" "http://www.w3.org/Graphics/SVG/1.1/DTD/svg11.dtd">
<svg width="100%" height="100%" viewBox="0 0 341 112" version="1.1" xmlns="http://www.w3.org/2000/svg" xmlns:xlink="http://www.w3.org/1999/xlink" xml:space="preserve" xmlns:serif="http://www.serif.com/" style="fill-rule:evenodd;clip-rule:evenodd;stroke-linecap:round;stroke-linejoin:round;stroke-miterlimit:1.5;">
    <g transform="matrix(1,0,0,1,-6737.5,-5890.25)">
        <g transform="matrix(1,0,0,1,-13.5742,-162.891)">
            <rect x="6752.17" y="6054.23" width="109.741" height="109.741" style="fill:none;stroke:rgb(109,218,211);stroke-width:2.18px;"/>
        </g>
        <g transform="matrix(0.268838,0,0,0.246647,5161.93,4477.11)">
            <text x="6342.86px" y="6097.47px" style="font-family:'MicrosoftJhengHeiLight', 'Microsoft JhengHei', sans-serif;font-weight:290;font-size:51.693px;fill:rgb(109,218,211);">M<tspan x="6394.51px 6441.96px 6478.04px 6518.16px 6560.84px 6578.65px 6618.77px 6651.6px 6671.88px 6713.12px 6757.76px 6775.57px 6814.3px 6847.21px 6883.29px 6916.12px 6933.93px 6967.47px 7007.59px 7043.67px 7061.48px 7101.61px " y="6097.47px 6097.47px 6097.47px 6097.47px 6097.47px 6097.47px 6097.47px 6097.47px 6097.47px 6097.47px 6097.47px 6097.47px 6097.47px 6097.47px 6097.47px 6097.47px 6097.47px 6097.47px 6097.47px 6097.47px 6097.47px 6097.47px ">ORADIAS UNIVERSITÁRIAS</tspan></text>
        </g>
        <g transform="matrix(1,0,0,1,-13.5742,-162.891)">
            <rect x="6779.22" y="6099" width="22.009" height="49.185" style="fill:white;"/>
        </g>
        <g transform="matrix(1,0,0,1,-13.5742,-162.891)">
            <rect x="6813.56" y="6070.61" width="21.92" height="77.576" style="fill:white;"/>
        </g>
        <g transform="matrix(1.3658,0,0,0.965467,-1796.26,65.6996)">
            <g transform="matrix(0.837005,0,0,1.02,1033.85,-121.949)">
                <text x="6342.86px" y="6097.47px" style="font-family:'Dubai-Light', 'Dubai', sans-serif;font-weight:300;font-size:51.693px;fill:rgb(109,218,211);">F</text>
            </g>
            <g transform="matrix(0.837005,0,-0.0713253,1.02,1473.04,-121.949)">
                <text x="6369.12px" y="6097.47px" style="font-family:'Dubai-Light', 'Dubai', sans-serif;font-weight:300;font-size:51.693px;fill:rgb(109,218,211);">4</text>
            </g>
            <g transform="matrix(0.837005,0,0,1.02,1042.62,-121.949)">
                <text x="6396.64px" y="6097.47px" style="font-family:'Dubai-Light', 'Dubai', sans-serif;font-weight:300;font-size:51.693px;fill:rgb(109,218,211);">L<tspan x="6427.7px 6445.54px 6476.92px " y="6097.47px 6097.47px 6097.47px ">IFE</tspan></text>
            </g>
        </g>
    </g>
</svg>
